<?xml version="1.0" encoding="UTF-8" standalone="no"?>
<svg
   xmlns:dc="http://purl.org/dc/elements/1.1/"
   xmlns:cc="http://creativecommons.org/ns#"
   xmlns:rdf="http://www.w3.org/1999/02/22-rdf-syntax-ns#"
   xmlns:svg="http://www.w3.org/2000/svg"
   xmlns="http://www.w3.org/2000/svg"
   xmlns:sodipodi="http://sodipodi.sourceforge.net/DTD/sodipodi-0.dtd"
   xmlns:inkscape="http://www.inkscape.org/namespaces/inkscape"
   version="1.1"
   id="svg7234"
   viewBox="0 0 480.57649 437.66922"
   height="123.51998mm"
   width="135.62936mm"
   inkscape:version="0.91 r13725"
   sodipodi:docname="readme_layers.svg">
  <sodipodi:namedview
     pagecolor="#ffffff"
     bordercolor="#666666"
     borderopacity="1"
     objecttolerance="10"
     gridtolerance="10"
     guidetolerance="10"
     inkscape:pageopacity="0"
     inkscape:pageshadow="2"
     inkscape:window-width="1810"
     inkscape:window-height="1057"
     id="namedview11992"
     showgrid="false"
     fit-margin-top="0"
     fit-margin-left="0"
     fit-margin-right="0"
     fit-margin-bottom="0"
     inkscape:zoom="0.7189505"
     inkscape:cx="484.2663"
     inkscape:cy="255.49513"
     inkscape:window-x="-8"
     inkscape:window-y="-8"
     inkscape:window-maximized="1"
     inkscape:current-layer="svg7234" />
  <defs
     id="defs7236">
    <circle
       transform="matrix(-0.96592583,0.25881905,-0.25881905,-0.96592583,0,0)"
       r="174.28571"
       cy="381.62079"
       cx="1616.7683"
       id="path4189"
       style="opacity:1;fill:none;fill-opacity:0.78039216;fill-rule:nonzero;stroke:none;stroke-width:1;stroke-linecap:round;stroke-linejoin:miter;stroke-miterlimit:4;stroke-dasharray:none;stroke-dashoffset:0;stroke-opacity:1" />
    <path
       id="path4150"
       d="m -1772.3566,38.302384 a 112.50001,112.50001 0 0 1 123.4383,-100.37683 112.50001,112.50001 0 0 1 100.3768,123.4382 112.50001,112.50001 0 0 1 -123.4383,100.376826 112.50001,112.50001 0 0 1 -100.3768,-123.438196 z"
       style="opacity:1;fill:none;fill-opacity:0.77999998;fill-rule:nonzero;stroke:none;stroke-width:0.99999994;stroke-linecap:round;stroke-linejoin:miter;stroke-miterlimit:4;stroke-dasharray:none;stroke-dashoffset:0;stroke-opacity:1"
       inkscape:connector-curvature="0" />
    <circle
       style="opacity:1;fill:none;fill-opacity:0.78039216;fill-rule:nonzero;stroke:none;stroke-width:1;stroke-linecap:round;stroke-linejoin:miter;stroke-miterlimit:4;stroke-dasharray:none;stroke-dashoffset:0;stroke-opacity:1"
       id="path4189-9"
       cx="1616.7683"
       cy="381.62079"
       r="174.28571"
       transform="matrix(-0.96592583,0.25881905,-0.25881905,-0.96592583,0,0)"
       inkscape:export-xdpi="191.85724"
       inkscape:export-ydpi="191.85724" />
    <path
       style="opacity:1;fill:none;fill-opacity:0.77999998;fill-rule:nonzero;stroke:none;stroke-width:0.99999994;stroke-linecap:round;stroke-linejoin:miter;stroke-miterlimit:4;stroke-dasharray:none;stroke-dashoffset:0;stroke-opacity:1"
       d="m -1772.3566,38.302384 a 112.50001,112.50001 0 0 1 123.4383,-100.37683 112.50001,112.50001 0 0 1 100.3768,123.4382 112.50001,112.50001 0 0 1 -123.4383,100.376826 112.50001,112.50001 0 0 1 -100.3768,-123.438196 z"
       id="path4150-6"
       inkscape:connector-curvature="0"
       inkscape:export-xdpi="191.85724"
       inkscape:export-ydpi="191.85724" />
  </defs>
  <metadata
     id="metadata7239">
    <rdf:RDF>
      <cc:Work
         rdf:about="">
        <dc:format>image/svg+xml</dc:format>
        <dc:type
           rdf:resource="http://purl.org/dc/dcmitype/StillImage" />
        <dc:title></dc:title>
      </cc:Work>
    </rdf:RDF>
  </metadata>
  <circle
     r="218.78905"
     cy="218.88017"
     cx="218.78905"
     id="circle4140"
     style="opacity:1;fill:#50bda8;fill-opacity:1;fill-rule:nonzero;stroke:none;stroke-width:0.99999994;stroke-linecap:round;stroke-linejoin:miter;stroke-miterlimit:4;stroke-dasharray:none;stroke-dashoffset:0;stroke-opacity:1"
     inkscape:export-xdpi="191.85724"
     inkscape:export-ydpi="191.85724" />
  <circle
     style="opacity:1;fill:#000000;fill-opacity:0.34000017;fill-rule:nonzero;stroke:none;stroke-width:4;stroke-linecap:round;stroke-linejoin:miter;stroke-miterlimit:4;stroke-dasharray:none;stroke-dashoffset:0;stroke-opacity:1"
     id="path4138"
     cx="218.78905"
     cy="218.88017"
     r="156.06857"
     inkscape:export-xdpi="191.85724"
     inkscape:export-ydpi="191.85724" />
  <circle
     style="opacity:1;fill:#000000;fill-opacity:0.5;fill-rule:nonzero;stroke:none;stroke-width:4;stroke-linecap:round;stroke-linejoin:miter;stroke-miterlimit:4;stroke-dasharray:none;stroke-dashoffset:0;stroke-opacity:0.75333384"
     id="path4136"
     cx="218.78905"
     cy="218.88017"
     r="91.923882"
     inkscape:export-xdpi="191.85724"
     inkscape:export-ydpi="191.85724" />
  <g
     style="font-style:normal;font-weight:normal;font-size:42.71767807px;line-height:125%;font-family:sans-serif;letter-spacing:0px;word-spacing:0px;fill:#ffffff;fill-opacity:0.64666664;stroke:none;stroke-width:1px;stroke-linecap:butt;stroke-linejoin:miter;stroke-opacity:1"
     id="text4142"
     transform="translate(-727.36324,42.393906)">
    <path
       d="m 877.86127,193.04874 q -2.3291,0 -4.08692,-0.92285 -1.75781,-0.92286 -2.94433,-2.54883 -1.27442,-1.73584 -1.91162,-4.13086 -0.63721,-2.41699 -0.63721,-5.3833 0,-2.92237 0.61523,-5.31739 0.63721,-2.41699 1.9336,-4.13086 1.29638,-1.71386 3.09814,-2.54882 1.80176,-0.85694 3.93311,-0.85694 2.24121,0 3.91113,0.94483 1.69189,0.96679 2.65869,2.79052 l 0,-12.72216 4.04297,0 0,34.18945 -3.64746,0 -0.39551,-3.09814 q -0.50537,0.8789 -1.14258,1.58203 -0.6372,0.68115 -1.53808,1.18652 -1.66992,0.9668 -3.88916,0.9668 z m 0.57129,-3.42774 q 2.9663,0 4.48242,-2.41699 1.51611,-2.39502 1.51611,-7.0752 0,-4.68017 -1.51611,-7.09716 -0.70313,-1.12061 -1.80176,-1.75782 -1.09863,-0.6372 -2.65869,-0.6372 -2.94434,0 -4.41651,2.39502 -1.49414,2.41699 -1.49414,7.09716 0,4.68018 1.49414,7.09717 0.76905,1.25244 1.88965,1.82373 1.12061,0.57129 2.50489,0.57129 z"
       style="font-style:normal;font-variant:normal;font-weight:normal;font-stretch:normal;font-size:45px;font-family:Hack;-inkscape-font-specification:Hack;fill:#ffffff;fill-opacity:0.64666664"
       id="path12816"
       inkscape:connector-curvature="0" />
    <path
       d="m 906.18402,193.04874 q -2.52685,0 -4.50439,-0.81299 -1.95557,-0.83496 -3.31787,-2.48291 -1.38428,-1.71387 -2.04346,-4.13086 -0.65918,-2.43897 -0.65918,-5.51514 0,-6.24023 2.70264,-9.58008 2.70263,-3.31787 7.82226,-3.31787 2.63672,0 4.57031,0.85694 1.95557,0.83496 3.27393,2.46093 2.70264,3.33985 2.70264,9.55811 0,3.14209 -0.68116,5.58105 -0.65918,2.43897 -2.02148,4.08692 -1.31836,1.62597 -3.2959,2.46094 -1.95557,0.83496 -4.54834,0.83496 z m 0,-3.42774 q 3.09815,0 4.68018,-2.41699 1.58203,-2.39502 1.58203,-7.0752 0,-4.68017 -1.58203,-7.09716 -1.58203,-2.39502 -4.68018,-2.39502 -3.07617,0 -4.6582,2.39502 -1.58203,2.41699 -1.58203,7.09716 0,4.68018 1.58203,7.0752 1.58203,2.41699 4.6582,2.41699 z"
       style="font-style:normal;font-variant:normal;font-weight:normal;font-stretch:normal;font-size:45px;font-family:Hack;-inkscape-font-specification:Hack;fill:#ffffff;fill-opacity:0.64666664"
       id="path12818"
       inkscape:connector-curvature="0" />
    <path
       d="m 922.1142,167.80215 3.31787,0 0.35156,2.10938 q 0.7251,-1.31836 1.82373,-2.02148 1.07666,-0.68116 2.48291,-0.68116 1.62598,0 2.76856,0.76905 1.07666,0.74707 1.71386,2.3291 0.76905,-1.60401 1.91162,-2.35108 1.14258,-0.74707 2.76856,-0.74707 1.51611,0 2.5708,0.59326 1.05469,0.57129 1.62598,1.6919 1.20849,2.28516 1.20849,8.65723 l 0,14.26025 -3.6914,0 0,-14.08447 q 0,-1.40625 -0.0439,-2.46094 -0.022,-1.05469 -0.10986,-1.82373 -0.0659,-0.79102 -0.17578,-1.31836 -0.10987,-0.54932 -0.26368,-0.87891 -0.2417,-0.57129 -0.74707,-0.90088 -0.50537,-0.35156 -1.42822,-0.35156 -0.83496,0 -1.40625,0.32959 -0.57129,0.30762 -0.90088,1.01074 -0.37353,0.76905 -0.52734,2.28516 -0.15381,1.49414 -0.15381,4.10889 l 0,14.08447 -3.69141,0 0,-14.08447 q 0,-1.60401 -0.0439,-2.70264 -0.0439,-1.12061 -0.13184,-1.86768 -0.0879,-0.74707 -0.21972,-1.18652 -0.10987,-0.46142 -0.2417,-0.74707 -0.28565,-0.57129 -0.83496,-0.90088 -0.52735,-0.32959 -1.38428,-0.32959 -0.92285,0 -1.4502,0.37354 -0.50537,0.35156 -0.76904,0.94482 -0.15381,0.32959 -0.28564,0.83496 -0.10987,0.50537 -0.19776,1.27442 -0.0879,0.74707 -0.13183,1.80175 -0.0439,1.05469 -0.0439,2.50489 l 0,14.08447 -3.66943,0 0,-24.60938 z"
       style="font-style:normal;font-variant:normal;font-weight:normal;font-stretch:normal;font-size:45px;font-family:Hack;-inkscape-font-specification:Hack;fill:#ffffff;fill-opacity:0.64666664"
       id="path12820"
       inkscape:connector-curvature="0" />
    <path
       d="m 958.06146,193.04874 q -3.82324,0 -6.04248,-2.13135 -1.05469,-1.01074 -1.64795,-2.37305 -0.59326,-1.38428 -0.59326,-3.31787 0,-4.06494 2.76856,-6.21826 2.72461,-2.13135 8.08593,-2.13135 l 5.42725,0 0,-0.63721 q 0,-1.40625 -0.37354,-2.50488 -0.37353,-1.09863 -1.1206,-1.77978 -0.7251,-0.65918 -1.91162,-0.98877 -1.18653,-0.32959 -2.76856,-0.32959 -2.0874,0 -4.19677,0.59326 -2.13135,0.59326 -4.10889,1.73584 l 0,-4.04297 q 0.92285,-0.35156 2.04346,-0.70312 1.1206,-0.35157 2.26318,-0.59327 1.99951,-0.41748 4.021,-0.41748 1.56005,0 2.83447,0.2417 1.27441,0.21973 2.37305,0.68115 1.01074,0.43946 1.91162,1.12061 0.92285,0.65918 1.56005,1.53809 0.46143,0.6372 0.74708,1.34033 0.28564,0.70312 0.43945,1.38428 0.35156,1.604 0.35156,4.85595 l 0,5.03174 q 0.0439,1.27441 0.0659,2.24121 0.022,0.9668 0.13183,1.80176 0.10987,0.92285 0.2417,1.73584 0.15381,0.81299 0.26368,1.23047 0.1538,0.68115 0.35156,1.29638 0.19775,0.59327 0.2417,0.70313 l -4.06494,0 q -0.10987,-0.26367 -0.28565,-0.76904 -0.15381,-0.52735 -0.30762,-1.14258 -0.10986,-0.4834 -0.21972,-0.9668 -0.0879,-0.50537 -0.13184,-0.85693 -0.63721,1.09863 -1.64795,1.95556 -0.98877,0.85694 -1.95556,1.36231 -1.05469,0.54932 -2.24121,0.79101 -1.16456,0.26368 -2.50489,0.26368 z m 0.83496,-3.38379 q 3.31787,0 5.2295,-2.3291 1.93359,-2.37305 1.93359,-6.39405 l 0,-0.90088 -5.11963,0 q -3.51562,0 -5.31738,1.23047 -0.94483,0.63721 -1.38428,1.58203 -0.41748,0.92286 -0.41748,2.15332 0,1.14258 0.35156,1.99952 0.35156,0.83496 0.98877,1.42822 0.63721,0.57129 1.53809,0.90088 0.92285,0.32959 2.19726,0.32959 z"
       style="font-style:normal;font-variant:normal;font-weight:normal;font-stretch:normal;font-size:45px;font-family:Hack;-inkscape-font-specification:Hack;fill:#ffffff;fill-opacity:0.64666664"
       id="path12822"
       inkscape:connector-curvature="0" />
    <path
       d="m 985.3515,163.34171 q -0.65918,0 -0.65918,-0.65918 l 0,-3.80127 q 0,-0.65918 0.65918,-0.65918 l 3.16406,0 q 0.65918,0 0.65918,0.65918 l 0,3.80127 q 0,0.65918 -0.65918,0.65918 l -3.16406,0 z m 7.38281,29.2456 q -1.75781,0 -3.16406,-0.54932 -1.38428,-0.54931 -2.43896,-1.77978 -1.99952,-2.3291 -1.99952,-6.5918 l 0,-12.70019 -5.3833,0 0,-3.16407 9.42627,0 0,15.86426 q 0,2.74658 1.01075,4.10889 0.52734,0.7251 1.25244,1.05469 0.74707,0.32959 1.69189,0.32959 l 4.72412,0 0,3.42773 -5.11963,0 z"
       style="font-style:normal;font-variant:normal;font-weight:normal;font-stretch:normal;font-size:45px;font-family:Hack;-inkscape-font-specification:Hack;fill:#ffffff;fill-opacity:0.64666664"
       id="path12824"
       inkscape:connector-curvature="0" />
    <path
       d="m 1005.2148,167.80215 3.6474,0 0.3956,3.69141 q 1.0986,-2.13135 2.9223,-3.20801 1.8237,-1.07666 4.3506,-1.07666 1.9775,0 3.3618,0.63721 1.3843,0.63721 2.2852,1.82373 1.8457,2.48291 1.8457,7.49268 l 0,15.24902 -4.065,0 0,-15.24902 q 0,-3.31787 -1.1645,-4.87793 -1.1646,-1.56006 -3.6694,-1.56006 -1.4502,0 -2.5269,0.50537 -1.0547,0.50537 -1.8018,1.49414 -1.538,1.99951 -1.538,5.77881 l 0,13.90869 -4.043,0 0,-24.60938 z"
       style="font-style:normal;font-variant:normal;font-weight:normal;font-stretch:normal;font-size:45px;font-family:Hack;-inkscape-font-specification:Hack;fill:#ffffff;fill-opacity:0.64666664"
       id="path12826"
       inkscape:connector-curvature="0" />
  </g>
  <path
     style="opacity:1;fill:none;fill-opacity:0.77999998;fill-rule:nonzero;stroke:none;stroke-width:0.99999994;stroke-linecap:round;stroke-linejoin:miter;stroke-miterlimit:4;stroke-dasharray:none;stroke-dashoffset:0;stroke-opacity:1"
     d="M 106.88141,207.34949 A 112.50001,112.50001 0 0 1 230.31971,106.97266 112.50001,112.50001 0 0 1 330.69656,230.41086 112.50001,112.50001 0 0 1 207.25821,330.78768 112.50001,112.50001 0 0 1 106.88141,207.34949 Z"
     id="path5086"
     inkscape:connector-curvature="0"
     inkscape:export-xdpi="191.85724"
     inkscape:export-ydpi="191.85724" />
  <g
     transform="translate(1874.9553,169.69181)"
     style="font-style:normal;font-weight:normal;font-size:54.41861725px;line-height:125%;font-family:sans-serif;letter-spacing:0px;word-spacing:0px;fill:#ffffff;fill-opacity:0.7466661;stroke:none;stroke-width:1px;stroke-linecap:butt;stroke-linejoin:miter;stroke-opacity:1"
     id="text4153">
    <path
       d="m -1788.3432,32.540421 0.4426,-2.405907 2.1079,0.119718 q -1.0856,-0.899763 -1.5036,-2.108643 -0.4181,-1.20888 -0.1504,-2.66395 0.2651,-1.440663 1.039,-2.48982 0.7739,-1.049156 2.0658,-1.675343 1.2918,-0.626186 2.9364,-0.740655 1.6327,-0.131526 3.6065,0.231608 3.9618,0.728917 5.8873,2.810931 1.94,2.084665 1.4046,4.994804 -0.1511,0.821178 -0.4353,1.394449 -0.2698,0.575922 -0.6704,1.053304 -0.8551,1.00444 -2.136,1.409225 l 8.1686,1.502897 -0.4904,2.665226 -22.2726,-4.097844 z m 15.5171,-3.951773 q 0.3552,-1.930489 -1.0376,-3.18465 -1.3927,-1.25416 -4.4757,-1.821391 -3.083,-0.567231 -4.831,0.109097 -1.7479,0.676327 -2.1031,2.606816 -0.3551,1.930488 1.0323,3.213462 1.4018,1.285625 4.4704,1.850205 3.0687,0.56458 4.8219,-0.140561 1.7676,-0.70249 2.1228,-2.632978 z"
       style="font-style:normal;font-variant:normal;font-weight:normal;font-stretch:normal;font-size:30px;font-family:Hack;-inkscape-font-specification:Hack;fill:#ffffff;fill-opacity:0.7466661"
       id="path12829"
       inkscape:connector-curvature="0" />
    <path
       d="m -1783.4082,10.781776 0.8216,-2.3041868 3.1102,0.8290931 q -1.4107,-1.2339467 -1.8263,-2.8595825 -0.4068,-1.6069184 0.2377,-3.4143944 0.3345,-0.9382318 0.8643,-1.6824458 0.2531,-0.36076943 0.5889,-0.69201971 0.322,-0.33617013 0.6983,-0.60634841 l 2.5939,0.92493295 q -0.9151,0.56014567 -1.5148,1.32607277 -0.5948,0.7521297 -0.9539,1.7593491 -0.8413,2.3593771 0.2011,4.1462964 1.0287,1.7819996 3.8572,2.7905703 l 7.6852,2.74036 -0.9102,2.552542 -15.4532,-5.510239 z"
       style="font-style:normal;font-variant:normal;font-weight:normal;font-stretch:normal;font-size:30px;font-family:Hack;-inkscape-font-specification:Hack;fill:#ffffff;fill-opacity:0.7466661"
       id="path12831"
       inkscape:connector-curvature="0" />
    <path
       d="m -1758.2014,-5.0538367 q -0.9126,1.654622 -2.1416,2.6998256 -1.2347,1.025302 -2.7318,1.40402972 -1.497,0.37872776 -3.1511,0.10202574 -1.6599,-0.29660366 -3.4171,-1.26589136 -1.8086,-0.9975881 -2.8993,-2.2349559 -1.1036,-1.244443 -1.5916,-2.6344522 -0.5225,-1.509419 -0.3293,-3.0423469 0.1803,-1.540004 0.9798,-2.989401 0.7924,-1.436571 1.8612,-2.252221 1.076,-0.828476 2.3984,-1.102811 1.3223,-0.274335 2.8243,0.03555 1.4962,0.289985 3.138,1.195597 l 1.1544,0.636758 -5.6388,10.2227418 0.077,0.042451 q 2.3473,1.294742 4.3092,0.7709047 0.9411,-0.2504158 1.7345,-0.9001876 0.8004,-0.6625983 1.4442,-1.8298122 0.6439,-1.1672139 0.9498,-2.57101 0.3143,-1.4493507 0.3601,-3.2308217 l 2.3473,1.294742 q -0.093,0.8354588 -0.2413,1.5899866 -0.1486,0.7545278 -0.3542,1.4608536 -0.1985,0.6934993 -0.474,1.3445481 -0.2754,0.6510487 -0.608,1.2538954 z m -7.0545,-8.1070233 q -1.1172,-0.582805 -2.0482,-0.745029 -0.9368,-0.182125 -1.6577,-0.0277 -0.7934,0.164601 -1.4377,0.69583 -0.6444,0.531229 -1.1113,1.377779 -0.9551,1.731582 -0.4278,3.4444445 0.5331,1.7327645 2.408,3.0346283 l 4.2747,-7.7799498 z"
       style="font-style:normal;font-variant:normal;font-weight:normal;font-stretch:normal;font-size:30px;font-family:Hack;-inkscape-font-specification:Hack;fill:#ffffff;fill-opacity:0.7466661"
       id="path12833"
       inkscape:connector-curvature="0" />
    <path
       d="m -1748.9562,-18.948155 q -0.3977,0.507216 -0.8801,1.003824 -0.4619,0.494119 -0.9427,0.917502 -0.4447,0.377272 -1.0852,0.861701 -0.6313,0.472902 -1.3063,0.930217 l -2.1903,-1.717269 q 0.9473,-0.448545 1.5616,-0.8046 0.6027,-0.365094 1.1296,-0.752324 0.5657,-0.412774 1.035,-0.845195 0.4693,-0.432421 0.8851,-0.962693 1.0936,-1.394845 1.1318,-2.630637 0.017,-0.638463 -0.2422,-1.139244 -0.2588,-0.500782 -0.6738,-0.826159 -0.807,-0.632678 -1.8359,-0.341192 -1.0405,0.282448 -2.4881,1.511464 l -0.095,0.07415 -0.7851,0.668872 q -0.8507,0.728999 -1.6722,1.183174 -0.8124,0.442647 -1.635,0.542222 -1.5014,0.181726 -2.9769,-0.975171 -0.9337,-0.732099 -1.4044,-1.603718 -0.4617,-0.883146 -0.4693,-1.894284 -0.015,-1.072835 0.4684,-2.164284 0.4719,-1.100488 1.3577,-2.230197 0.3886,-0.495689 0.8234,-0.955225 0.4347,-0.459535 0.9066,-0.87139 0.4356,-0.365745 0.9561,-0.720881 0.5179,-0.375702 1.0935,-0.706213 l 2.075,1.626887 q -1.2534,0.506451 -2.2325,1.209256 -0.4884,0.361685 -0.9281,0.780088 -0.4307,0.406877 -0.8464,0.937148 -0.5243,0.668604 -0.8338,1.300786 -0.3005,0.620654 -0.3501,1.158776 -0.088,1.085283 0.8806,1.844497 0.4034,0.316339 0.8372,0.451644 0.4427,0.123778 0.8581,0.02133 0.4154,-0.102447 1.1019,-0.550723 0.684,-0.468843 1.7979,-1.438353 l 0.8302,-0.72651 q 0.8121,-0.703455 1.5728,-1.05637 0.7607,-0.352915 1.506,-0.401401 1.5203,-0.11099 2.9843,1.036869 0.9914,0.77729 1.449,1.713096 0.4551,0.915239 0.4586,1.979037 0,1.137022 -0.474,2.290169 -0.4669,1.14162 -1.3527,2.271329 z"
       style="font-style:normal;font-variant:normal;font-weight:normal;font-stretch:normal;font-size:30px;font-family:Hack;-inkscape-font-specification:Hack;fill:#ffffff;fill-opacity:0.7466661"
       id="path12835"
       inkscape:connector-curvature="0" />
    <path
       d="m -1735.889,-33.056678 q -1.3878,1.282492 -2.8836,1.88693 -1.495,0.583738 -3.0351,0.471171 -1.5401,-0.112567 -3.0227,-0.896657 -1.4817,-0.804789 -2.8437,-2.278654 -1.4018,-1.516896 -2.0468,-3.035046 -0.655,-1.528909 -0.6798,-3.001869 -0.02,-1.59716 0.6466,-2.991023 0.6566,-1.404621 1.8723,-2.528044 1.2049,-1.113482 2.4765,-1.550542 1.2822,-0.447002 2.6237,-0.29044 1.3414,0.156561 2.6691,0.924179 1.3285,0.746917 2.601,2.123958 l 0.8948,0.968232 -8.5743,7.923612 0.06,0.06455 q 1.8193,1.968738 3.8463,2.090139 0.9721,0.05907 1.9298,-0.307438 0.9686,-0.376447 1.9476,-1.281151 0.9789,-0.904703 1.7118,-2.14046 0.7553,-1.27634 1.3604,-2.952509 l 1.8193,1.968738 q -0.3514,0.763594 -0.7303,1.432814 -0.3788,0.66922 -0.7966,1.274707 -0.407,0.595546 -0.8737,1.126543 -0.4667,0.530997 -0.9723,0.998261 z m -4.1389,-9.917685 q -0.8765,-0.905316 -1.7088,-1.352784 -0.8316,-0.468169 -1.5644,-0.548898 -0.8048,-0.09394 -1.5838,0.207057 -0.779,0.300995 -1.489,0.957153 -1.4523,1.342143 -1.4919,3.133911 -0.04,1.812468 1.3285,3.639048 l 6.5094,-6.035487 z"
       style="font-style:normal;font-variant:normal;font-weight:normal;font-stretch:normal;font-size:30px;font-family:Hack;-inkscape-font-specification:Hack;fill:#ffffff;fill-opacity:0.7466661"
       id="path12837"
       inkscape:connector-curvature="0" />
    <path
       d="m -1736.8771,-54.155771 2.0253,-1.345742 1.5816,1.903782 q -0.1764,-1.588805 0.4391,-2.859506 0.6154,-1.270701 2.0184,-2.202992 1.0981,-0.729619 2.1018,-0.886534 1.0038,-0.156915 1.9418,0.169537 1.9409,0.697693 3.7893,3.479436 l 5.6261,8.467235 -2.2571,1.499772 -5.6261,-8.467235 q -1.2242,-1.842294 -2.4464,-2.278875 -1.2222,-0.43658 -2.6131,0.487604 -0.8052,0.535054 -1.2166,1.212905 -0.3992,0.669745 -0.4492,1.494407 -0.1163,1.677738 1.2781,3.776246 l 5.1316,7.722996 -2.2449,1.491666 -9.0797,-13.664702 z"
       style="font-style:normal;font-variant:normal;font-weight:normal;font-stretch:normal;font-size:30px;font-family:Hack;-inkscape-font-specification:Hack;fill:#ffffff;fill-opacity:0.7466661"
       id="path12839"
       inkscape:connector-curvature="0" />
    <path
       d="m -1704.3257,-53.754576 q -2.7474,1.248125 -4.3972,0.662242 -1.6305,-0.578605 -2.8665,-3.299288 l -3.708,-8.162047 -3.9877,1.811597 -0.8664,-1.907145 3.9877,-1.811597 -1.7753,-3.907647 1.9693,-2.181764 2.2599,4.974581 5.5748,-2.532601 0.8664,1.907145 -5.5748,2.532602 3.7081,8.162047 q 0.7452,1.640411 1.675,2.022479 0.9103,0.37479 2.4841,-0.340155 l 2.7607,-1.254183 0.8906,1.960492 -3.0007,1.363242 0,0 z"
       style="font-style:normal;font-variant:normal;font-weight:normal;font-stretch:normal;font-size:30px;font-family:Hack;-inkscape-font-specification:Hack;fill:#ffffff;fill-opacity:0.7466661"
       id="path12841"
       inkscape:connector-curvature="0" />
    <path
       d="m -1691.2829,-57.95899 q -2.4597,0.668413 -4.26,-0.31477 -0.8552,-0.465856 -1.4751,-1.238554 -0.6236,-0.786834 -0.9617,-2.030782 -0.7107,-2.615117 0.694,-4.484446 1.3802,-1.847509 4.8293,-2.784824 l 3.4916,-0.948839 -0.1114,-0.409937 q -0.2459,-0.904689 -0.6783,-1.546173 -0.4324,-0.641484 -1.0321,-0.949083 -0.5817,-0.297305 -1.4026,-0.301903 -0.821,-0.0046 -1.8388,0.271986 -1.3429,0.364938 -2.5962,1.115383 -1.2674,0.754287 -2.3399,1.835078 l -0.7068,-2.600982 q 0.5322,-0.387513 1.1917,-0.809599 0.6594,-0.422087 1.3523,-0.777336 1.2133,-0.618152 2.5138,-0.971565 1.0037,-0.272743 1.8658,-0.340054 0.8583,-0.08145 1.6457,0.02333 0.7271,0.106008 1.4258,0.386717 0.7089,0.262732 1.2725,0.716761 0.4083,0.329267 0.7149,0.731673 0.3067,0.402405 0.5248,0.813724 0.5066,0.970448 1.0751,3.062542 l 0.8797,3.237091 q 0.2511,0.812191 0.4342,1.430324 0.1832,0.618132 0.3998,1.136084 0.2321,0.574495 0.459,1.07447 0.2411,0.496133 0.3848,0.745505 0.218,0.411319 0.4528,0.772547 0.2309,0.347093 0.2784,0.410089 l -2.6151,0.710669 q -0.1168,-0.150422 -0.3182,-0.444813 -0.1912,-0.312368 -0.3977,-0.68128 -0.1552,-0.291779 -0.3104,-0.583559 -0.1449,-0.309757 -0.2346,-0.528246 -0.2179,0.81819 -0.7183,1.546192 -0.4863,0.72416 -1.0199,1.218307 -0.5825,0.537784 -1.3036,0.900716 -0.7031,0.373226 -1.5653,0.607555 z m -0.054,-2.322884 q 2.1345,-0.580059 2.9571,-2.412657 0.8291,-1.864711 0.1261,-4.451557 l -0.1575,-0.579566 -3.2936,0.895058 q -2.2617,0.614633 -3.2057,1.721235 -0.4965,0.57512 -0.614,1.259787 -0.1072,0.66669 0.1079,1.458293 0.1997,0.73506 0.5757,1.224892 0.3722,0.475696 0.8858,0.745959 0.5098,0.256128 1.147,0.310665 0.6514,0.0507 1.4712,-0.172109 z"
       style="font-style:normal;font-variant:normal;font-weight:normal;font-stretch:normal;font-size:30px;font-family:Hack;-inkscape-font-specification:Hack;fill:#ffffff;fill-opacity:0.7466661"
       id="path12843"
       inkscape:connector-curvature="0" />
    <path
       d="m -1669.4283,-62.304332 q -3.0013,0.31271 -4.3803,-0.766015 -1.3629,-1.065673 -1.6726,-4.037865 l -0.929,-8.916577 -4.3563,0.453887 -0.2171,-2.083449 4.3563,-0.453886 -0.4448,-4.268884 2.5594,-1.44488 0.5662,5.434449 6.0901,-0.63453 0.2171,2.083449 -6.0901,0.63453 0.929,8.916576 q 0.1867,1.792057 0.9474,2.449189 0.7446,0.64408 2.4638,0.464955 l 3.0159,-0.314229 0.2232,2.141726 -3.2782,0.341554 0,0 z"
       style="font-style:normal;font-variant:normal;font-weight:normal;font-stretch:normal;font-size:30px;font-family:Hack;-inkscape-font-specification:Hack;fill:#ffffff;fill-opacity:0.7466661"
       id="path12845"
       inkscape:connector-curvature="0" />
    <path
       d="m -1654.4654,-81.921023 q -0.4388,-0.0247 -0.4141,-0.463459 l 0.1425,-2.530174 q 0.025,-0.438758 0.4634,-0.414057 l 2.1061,0.118565 q 0.4387,0.0247 0.414,0.463459 l -0.1424,2.530173 q -0.025,0.438759 -0.4635,0.414058 l -2.106,-0.118565 z m 3.8182,19.742898 q -1.17,-0.06587 -2.0855,-0.484197 -0.9008,-0.417504 -1.5567,-1.276041 -1.2436,-1.625206 -1.0839,-4.462511 l 0.4759,-8.453411 -3.5832,-0.201725 0.1186,-2.10604 6.2743,0.353224 -0.5945,10.559452 q -0.1029,1.82816 0.5188,2.772802 0.3238,0.502395 0.7941,0.748945 0.4849,0.247374 1.1138,0.282779 l 3.1444,0.177023 -0.1284,2.281544 -3.4077,-0.191844 z"
       style="font-style:normal;font-variant:normal;font-weight:normal;font-stretch:normal;font-size:30px;font-family:Hack;-inkscape-font-specification:Hack;fill:#ffffff;fill-opacity:0.7466661"
       id="path12847"
       inkscape:connector-curvature="0" />
    <path
       d="m -1636.4214,-59.64666 q -1.6458,-0.359291 -2.8182,-1.169996 -1.155,-0.821893 -1.808,-2.088951 -0.6579,-1.313117 -0.7436,-2.981097 -0.083,-1.682292 0.3548,-3.685885 0.8873,-4.064433 3.1225,-5.855478 2.2321,-1.776733 5.5666,-1.048778 1.7174,0.374912 2.855,1.207992 1.155,0.821892 1.7824,2.068391 1.2855,2.559615 0.4013,6.609736 -0.4468,2.046528 -1.2372,3.538239 -0.7762,1.494835 -1.8978,2.374484 -1.0899,0.871586 -2.4966,1.134234 -1.3925,0.265773 -3.0812,-0.102891 z m 0.4874,-2.232576 q 2.0179,0.440523 3.392,-0.908782 1.3709,-1.334993 2.0364,-4.383318 0.6655,-3.048324 -0.021,-4.847523 -0.6898,-1.784889 -2.7077,-2.225411 -2.0036,-0.437397 -3.3746,0.897596 -1.3741,1.349304 -2.0396,4.397629 -0.6654,3.048324 0.024,4.833212 0.6868,1.7992 2.6904,2.236597 z"
       style="font-style:normal;font-variant:normal;font-weight:normal;font-stretch:normal;font-size:30px;font-family:Hack;-inkscape-font-specification:Hack;fill:#ffffff;fill-opacity:0.7466661"
       id="path12849"
       inkscape:connector-curvature="0" />
    <path
       d="m -1618.7965,-72.341364 2.2618,0.892699 -0.6582,2.385899 q 1.2029,-1.052798 2.5974,-1.274103 1.3944,-0.221305 2.9613,0.39713 1.2263,0.483994 1.9288,1.217931 0.7025,0.733938 0.9707,1.690206 0.5369,1.99142 -0.6892,5.098058 l -3.7322,9.456168 -2.5207,-0.994875 3.7321,-9.456168 q 0.8121,-2.057466 0.4717,-3.309902 -0.3403,-1.252436 -1.8936,-1.865494 -0.8993,-0.354929 -1.6907,-0.305047 -0.7777,0.05526 -1.4829,0.485569 -1.4432,0.863491 -2.3682,3.207095 l -3.4041,8.625006 -2.5071,-0.989497 6.0231,-15.260675 z"
       style="font-style:normal;font-variant:normal;font-weight:normal;font-stretch:normal;font-size:30px;font-family:Hack;-inkscape-font-specification:Hack;fill:#ffffff;fill-opacity:0.7466661"
       id="path12851"
       inkscape:connector-curvature="0" />
  </g>
  <g
     transform="translate(1880.8565,170.67534)"
     style="font-style:normal;font-weight:normal;font-size:40px;line-height:125%;font-family:sans-serif;letter-spacing:0px;word-spacing:0px;fill:#ffffff;fill-opacity:0.93333333;stroke:none;stroke-width:1px;stroke-linecap:butt;stroke-linejoin:miter;stroke-opacity:1"
     id="text4183">
    <path
       d="m -1830.5704,85.088483 q 0.654,3.334914 -0.8255,5.635287 -0.7012,1.092874 -1.788,1.843397 -1.106,0.754281 -2.7926,1.085042 -3.5458,0.69535 -5.8976,-1.351241 -2.3252,-2.012017 -3.2423,-6.688564 l -0.9284,-4.734046 -0.5558,0.109001 q -1.2267,0.240554 -2.1211,0.754311 -0.8944,0.513757 -1.3608,1.281925 -0.4509,0.745243 -0.5354,1.836597 -0.085,1.091353 0.1861,2.471317 0.357,1.820787 1.2354,3.559257 0.882,1.757635 2.217,3.287141 l -3.5266,0.691591 q -0.4645,-0.744841 -0.9629,-1.662177 -0.4983,-0.917337 -0.9046,-1.872633 -0.7062,-1.672708 -1.052,-3.435996 -0.2669,-1.360798 -0.2741,-2.513782 -0.026,-1.149224 0.1883,-2.186465 0.2104,-0.956817 0.6504,-1.859148 0.4172,-0.917739 1.0748,-1.623904 0.4769,-0.51149 1.0414,-0.880927 0.5644,-0.369437 1.1322,-0.620118 1.339,-0.58104 4.1756,-1.13732 l 4.3891,-0.86073 q 1.1041,-0.256334 1.9437,-0.440881 0.8395,-0.184546 1.549,-0.423206 0.7862,-0.253694 1.4728,-0.507761 0.6829,-0.273233 1.0282,-0.440478 0.5679,-0.250681 1.0707,-0.528419 0.4836,-0.273979 0.572,-0.331105 l 0.6953,3.545743 q -0.2112,0.140935 -0.6219,0.380713 -0.4337,0.224371 -0.9441,0.463776 -0.4028,0.178521 -0.8057,0.357042 -0.4258,0.163114 -0.7249,0.261584 1.0673,0.367887 1.9877,1.102944 0.9166,0.715891 1.5228,1.472754 0.6596,0.82601 1.0734,1.819638 0.4292,0.970704 0.6584,2.139841 z m -3.0944,-0.149483 q -0.5675,-2.894093 -2.9262,-4.163134 -2.4007,-1.280689 -5.9081,-0.592857 l -0.7858,0.154104 0.8758,4.465719 q 0.6014,3.066588 1.9829,4.427731 0.7174,0.715145 1.6167,0.936846 0.8764,0.206294 1.9497,-0.0042 0.9967,-0.195449 1.684,-0.648695 0.6682,-0.449488 1.0767,-1.10679 0.3893,-0.653544 0.5227,-1.495737 0.1296,-0.861359 -0.088,-1.972997 z"
       style="font-style:normal;font-variant:normal;font-weight:normal;font-stretch:normal;font-family:Hack;-inkscape-font-specification:Hack;fill:#ffffff;fill-opacity:0.93333333"
       id="path12854"
       inkscape:connector-curvature="0" />
    <path
       d="m -1855.887,68.892446 -0.1816,-3.256661 2.7691,-0.506493 q -1.6892,-0.825217 -2.6104,-2.260539 -0.9211,-1.435322 -1.031,-3.404919 -0.1087,-1.950096 0.5649,-3.552576 0.6735,-1.60248 2.1511,-2.819428 1.4775,-1.216949 3.5726,-1.881486 2.0746,-0.68295 4.7462,-0.831903 5.3628,-0.298993 8.5116,1.794596 3.1682,2.092501 3.3879,6.031696 0.062,1.111555 -0.1264,1.943642 -0.1689,0.831001 -0.5381,1.575369 -0.7928,1.570001 -2.3256,2.496609 l 11.057,-0.616468 0.2012,3.607678 -30.1485,1.680883 z m 18.8676,-9.991576 q -0.1457,-2.61313 -2.3442,-3.801184 -2.1984,-1.188055 -6.3716,-0.955384 -4.1732,0.23267 -6.226,1.657745 -2.0528,1.425074 -1.9071,4.038204 0.1457,2.613129 2.3464,3.840186 2.2201,1.225969 6.3738,0.994385 4.1537,-0.231583 6.2043,-1.69566 2.0701,-1.465163 1.9244,-4.078292 z"
       style="font-style:normal;font-variant:normal;font-weight:normal;font-stretch:normal;font-family:Hack;-inkscape-font-specification:Hack;fill:#ffffff;fill-opacity:0.93333333"
       id="path12856"
       inkscape:connector-curvature="0" />
    <path
       d="m -1856.6692,41.79701 0.2715,-3.250398 2.8125,-0.117842 q -1.5585,-1.051356 -2.2719,-2.600492 -0.7133,-1.549135 -0.5491,-3.514944 0.1626,-1.946346 1.0517,-3.440014 0.8892,-1.493668 2.5211,-2.494105 1.6319,-1.000437 3.7989,-1.368193 2.1492,-0.388847 4.8157,-0.166102 5.3525,0.447115 8.1807,2.956886 2.8477,2.511397 2.5193,6.443016 -0.093,1.109417 -0.3945,1.907372 -0.2824,0.799581 -0.7513,1.485586 -1.0027,1.444985 -2.6491,2.150219 l 11.0358,0.921869 -0.3008,3.60074 -30.0905,-2.513598 z m 20.0702,-7.28031 q 0.2179,-2.608104 -1.7947,-4.089376 -2.0126,-1.481272 -6.1778,-1.829208 -4.1652,-0.347937 -6.3956,0.778895 -2.2305,1.126832 -2.4483,3.734935 -0.2179,2.608104 1.7914,4.128303 2.0288,1.521824 6.1746,1.868135 4.1457,0.346311 6.3794,-0.819448 2.2531,-1.164133 2.471,-3.772236 z"
       style="font-style:normal;font-variant:normal;font-weight:normal;font-stretch:normal;font-family:Hack;-inkscape-font-specification:Hack;fill:#ffffff;fill-opacity:0.93333333"
       id="path12858"
       inkscape:connector-curvature="0" />
    <path
       d="m -1783.4436,-72.903456 q -1.7042,1.748212 -3.6538,2.657036 -1.9501,0.881205 -4.0086,0.838403 -2.0861,-0.04245 -4.101,-0.997388 -2.0152,-0.982557 -3.9313,-2.850335 -1.9999,-1.949578 -2.9923,-3.953443 -0.9788,-2.017851 -1.0594,-4.005722 -0.082,-2.098348 0.7635,-4.028974 0.8452,-1.958244 2.5494,-3.706456 0.6271,-0.643342 1.2287,-1.120618 0.6017,-0.477275 1.2736,-0.858764 1.3298,-0.776611 3.0222,-1.281611 l 2.6993,2.631248 q -0.952,0.0812 -1.7785,0.257485 -0.8264,0.176283 -1.5267,0.502887 -1.428,0.653558 -2.6687,1.926257 -2.3722,2.433511 -2.0737,5.261123 0.3125,2.841246 3.1935,5.649729 1.3426,1.308808 2.7758,2.133048 1.4467,0.810255 2.9675,0.928974 2.862,0.22592 5.2615,-2.235563 0.6816,-0.699285 1.1287,-1.381766 0.4607,-0.696466 0.7421,-1.376833 0.3757,-0.861125 0.5043,-1.608602 0.1283,-0.775097 0.1453,-1.604023 l 2.6713,2.603982 q -0.1838,0.748182 -0.4914,1.539378 -0.3076,0.791196 -0.6718,1.47262 -0.3373,0.625834 -0.84,1.2814 -0.4751,0.655214 -1.1295,1.326528 z"
       style="font-style:normal;font-variant:normal;font-weight:normal;font-stretch:normal;font-family:Hack;-inkscape-font-specification:Hack;fill:#ffffff;fill-opacity:0.93333333"
       id="path12860"
       inkscape:connector-curvature="0" />
    <path
       d="m -1763.9654,-90.301783 q -1.2348,0.957514 -2.5218,1.33767 -1.2716,0.368187 -2.6827,0.07838 -2.6732,-0.546853 -4.9952,-3.541088 l -12.1364,-15.650279 -4.5531,3.53083 -1.7236,-2.22252 7.393,-5.73312 13.86,17.872807 q 1.4962,1.929275 2.9482,2.335625 0.7654,0.222074 1.4543,0.05861 0.7043,-0.175431 1.3679,-0.690094 l 3.3184,-2.573319 1.8671,2.407735 -3.5961,2.78876 0,0 z"
       style="font-style:normal;font-variant:normal;font-weight:normal;font-stretch:normal;font-family:Hack;-inkscape-font-specification:Hack;fill:#ffffff;fill-opacity:0.93333333"
       id="path12862"
       inkscape:connector-curvature="0" />
    <path
       d="m -1746.9664,-100.8589 q -1.9486,1.117103 -3.833,1.364421 -1.8772,0.22066 -3.6563,-0.447895 -1.8251,-0.709676 -3.402,-2.282126 -1.5866,-1.5894 -2.9465,-3.9616 -2.7588,-4.81217 -2.1512,-8.58252 0.6174,-3.7534 4.5654,-6.01676 2.0333,-1.16567 3.9032,-1.35967 1.8772,-0.22066 3.6127,0.45037 3.5607,1.38072 6.3097,6.17595 1.3891,2.42303 1.9421,4.60498 0.5699,2.17223 0.2479,4.04532 -0.2978,1.83672 -1.4537,3.35485 -1.1389,1.50843 -3.1383,2.65468 z m -1.5154,-2.64331 q 2.3892,-1.36967 2.5406,-3.93295 0.1612,-2.54633 -1.9079,-6.15546 -2.0691,-3.60913 -4.3576,-4.7736 -2.2788,-1.14752 -4.668,0.22215 -2.3722,1.35996 -2.5333,3.90629 -0.1515,2.56327 1.9176,6.17241 2.0691,3.60913 4.3479,4.75665 2.2885,1.16446 4.6607,-0.19549 z"
       style="font-style:normal;font-variant:normal;font-weight:normal;font-stretch:normal;font-family:Hack;-inkscape-font-specification:Hack;fill:#ffffff;fill-opacity:0.93333333"
       id="path12864"
       inkscape:connector-curvature="0" />
    <path
       d="m -1726.8849,-110.70968 q -3.0991,1.24495 -5.4442,-0.19145 -2.3378,-1.41829 -3.9978,-5.55047 l -5.0526,-12.57777 3.3347,-1.33961 5.0527,12.57778 q 1.1066,2.75479 2.5949,3.63029 0.7188,0.42691 1.5639,0.48732 0.856,0.035 1.9434,-0.40182 2.3561,-0.94646 2.9368,-3.11618 0.588,-2.1516 -0.6569,-5.25073 l -4.6086,-11.47224 3.3529,-1.34688 8.1395,20.26218 -3.0266,1.21583 -1.5493,-2.91371 q -0.1927,2.14013 -1.3402,3.63247 -1.1765,1.52501 -3.2426,2.35499 z"
       style="font-style:normal;font-variant:normal;font-weight:normal;font-stretch:normal;font-family:Hack;-inkscape-font-specification:Hack;fill:#ffffff;fill-opacity:0.93333333"
       id="path12866"
       inkscape:connector-curvature="0" />
    <path
       d="m -1703.6795,-118.42519 q -2.0083,0.50282 -3.7232,0.0866 -1.715,-0.41627 -3.0891,-1.56215 -1.4736,-1.22164 -2.5401,-3.14924 -1.0713,-1.94654 -1.7117,-4.50432 -0.6309,-2.51987 -0.6174,-4.71786 0.028,-2.22167 0.7755,-3.97937 0.7478,-1.75769 2.1212,-2.86663 1.3686,-1.12789 3.2064,-1.58802 1.9325,-0.48384 3.5764,-0.0297 1.6676,0.46839 2.895,1.83223 l -2.7466,-10.97 3.4862,-0.87282 7.381,29.48068 -3.1451,0.78743 -1.0099,-2.58606 q -0.246,0.86696 -0.6436,1.61081 -0.4024,0.72491 -1.0701,1.35516 -1.2313,1.19416 -3.1449,1.67326 z m -0.2473,-3.07898 q 2.5577,-0.64038 3.3432,-3.0518 0.7903,-2.39247 -0.2201,-6.42807 -1.0104,-4.03559 -2.8395,-5.79239 -0.8482,-0.81448 -1.9331,-1.12674 -1.0849,-0.31227 -2.4301,0.0245 -2.5388,0.63564 -3.2911,3.01863 -0.7666,2.40667 0.2438,6.44227 1.0104,4.03559 2.8205,5.79714 0.9335,0.91392 2.0231,1.1646 1.0896,0.25069 2.2833,-0.0482 z"
       style="font-style:normal;font-variant:normal;font-weight:normal;font-stretch:normal;font-family:Hack;-inkscape-font-specification:Hack;fill:#ffffff;fill-opacity:0.93333333"
       id="path12868"
       inkscape:connector-curvature="0" />
    <path
       d="m -1565.712,-95.786528 q -1.7286,-1.139491 -2.5816,-2.684366 -0.853,-1.544876 -0.9381,-3.332066 -0.096,-1.91173 0.6023,-4.00091 0.7096,-2.10548 2.1608,-4.30689 1.4298,-2.1688 3.0581,-3.64523 1.6554,-1.48199 3.456,-2.11967 1.8006,-0.63768 3.5462,-0.37584 1.7564,0.24553 3.3382,1.28827 1.6632,1.09649 2.4403,2.61467 0.7826,1.54524 0.6079,3.37169 l 6.2242,-9.44159 3.0004,1.97799 -16.7268,25.373254 -2.707,-1.784485 1.2223,-2.492746 q -0.8051,0.405021 -1.622,0.615088 -0.8061,0.193761 -1.722,0.12807 -1.7123,-0.0995 -3.3592,-1.185239 z m 2.1009,-2.264351 q 2.2014,1.451238 4.5091,0.399243 2.2969,-1.035689 4.5866,-4.509024 2.2898,-3.47333 2.3471,-6.00881 0.026,-1.17564 -0.4772,-2.18603 -0.5036,-1.01039 -1.6613,-1.77364 -2.1851,-1.44048 -4.4494,-0.3833 -2.2914,1.06275 -4.5811,4.53608 -2.2897,3.47333 -2.3634,5.99807 -0.042,1.30573 0.5102,2.277947 0.5521,0.97222 1.5794,1.649464 z"
       style="font-style:normal;font-variant:normal;font-weight:normal;font-stretch:normal;font-family:Hack;-inkscape-font-specification:Hack;fill:#ffffff;fill-opacity:0.93333333"
       id="path12870"
       inkscape:connector-curvature="0" />
    <path
       d="m -1544.8452,-79.867846 q -0.7487,-0.657078 -1.2235,-1.35967 -0.4876,-0.687914 -0.7932,-1.553771 -0.5634,-1.637938 -0.1821,-3.434281 l -2.0809,1.837841 -2.4367,-2.138722 20.0473,-22.840661 2.701,2.37063 -7.4598,8.499195 q 1.6877,-0.649679 3.4142,-0.277733 1.6972,0.346178 3.2238,1.686101 1.4092,1.236851 2.094,2.825366 0.6994,1.601399 0.5605,3.506516 -0.1536,1.892234 -1.1322,3.865887 -0.9787,1.973652 -2.7309,3.970008 -3.5301,4.02207 -7.2686,4.846837 -1.8416,0.410588 -3.5313,-0.03296 -1.6897,-0.443547 -3.2016,-1.770585 z m 1.6282,-2.624918 q 1.9523,1.713554 4.3402,0.976753 2.4154,-0.738596 5.1596,-3.865242 2.7443,-3.126645 3.1633,-5.617448 0.4209,-2.46324 -1.5461,-4.189679 -1.967,-1.726438 -4.3842,-1.015405 -2.4301,0.725713 -5.1744,3.852358 -2.7442,3.126646 -3.1357,5.615653 -0.4044,2.503687 1.5773,4.24301 z"
       style="font-style:normal;font-variant:normal;font-weight:normal;font-stretch:normal;font-family:Hack;-inkscape-font-specification:Hack;fill:#ffffff;fill-opacity:0.93333333"
       id="path12872"
       inkscape:connector-curvature="0" />
  </g>
  <circle
     style="opacity:1;fill:none;fill-opacity:0.78039216;fill-rule:nonzero;stroke:none;stroke-width:1;stroke-linecap:round;stroke-linejoin:miter;stroke-miterlimit:4;stroke-dasharray:none;stroke-dashoffset:0;stroke-opacity:1"
     id="circle5092"
     cx="-154.68358"
     cy="-268.04877"
     r="174.28571"
     transform="matrix(-0.96592583,0.25881905,-0.25881905,-0.96592583,0,0)"
     inkscape:export-xdpi="191.85724"
     inkscape:export-ydpi="191.85724" />
  <path
     id="path4223"
     d="m 362.92016,200.86818 -21.2129,17.16211 21.2129,17.16015 0,-7.94336 33.3574,0 a 13.571428,13.571428 0 0 0 9.9453,4.35352 13.571428,13.571428 0 0 0 13.5703,-13.57031 13.571428,13.571428 0 0 0 -13.5703,-13.57227 13.571428,13.571428 0 0 0 -9.9375,4.35352 l -33.3652,0 0,-7.94336 z"
     style="opacity:1;fill:#ffffff;fill-opacity:0.54000005;fill-rule:nonzero;stroke:none;stroke-width:1;stroke-linecap:round;stroke-linejoin:miter;stroke-miterlimit:4;stroke-dasharray:none;stroke-dashoffset:0;stroke-opacity:1"
     inkscape:connector-curvature="0"
     inkscape:export-xdpi="191.85724"
     inkscape:export-ydpi="191.85724" />
  <path
     inkscape:connector-curvature="0"
     style="opacity:1;fill:#ffffff;fill-opacity:0.54000005;fill-rule:nonzero;stroke:none;stroke-width:1;stroke-linecap:round;stroke-linejoin:miter;stroke-miterlimit:4;stroke-dasharray:none;stroke-dashoffset:0;stroke-opacity:1"
     d="m 297.48686,245.00012 -26.95195,4.25637 9.79085,25.46757 3.9717,-6.87913 28.8883,16.67868 a 13.571428,13.571428 0 0 0 6.4362,8.74291 13.571428,13.571428 0 0 0 18.5373,-4.96709 13.571428,13.571428 0 0 0 -4.9675,-18.53869 13.571428,13.571428 0 0 0 -10.7829,-1.19848 l -28.895,-16.68261 3.9716,-6.87914 z"
     id="path4225"
     inkscape:export-xdpi="191.85724"
     inkscape:export-ydpi="191.85724" />
  <path
     id="path4257"
     d="m 281.65026,161.32935 -9.79095,25.46753 26.95205,4.25637 -3.9717,-6.8791 41.3104,-23.85055 35.3498,-20.4092 a 13.571428,13.571428 0 0 0 10.7896,-1.20241 13.571428,13.571428 0 0 0 4.9661,-18.53911 13.571428,13.571428 0 0 0 -18.5374,-4.96707 13.571428,13.571428 0 0 0 -6.4294,8.73899 l -35.3565,20.4131 -41.3104,23.85055 -3.9716,-6.8791 z"
     style="opacity:1;fill:#ffffff;fill-opacity:0.54000005;fill-rule:nonzero;stroke:none;stroke-width:1;stroke-linecap:round;stroke-linejoin:miter;stroke-miterlimit:4;stroke-dasharray:none;stroke-dashoffset:0;stroke-opacity:1"
     inkscape:connector-curvature="0"
     inkscape:export-xdpi="191.85724"
     inkscape:export-ydpi="191.85724" />
  <g
     id="g4443"
     transform="translate(1927.9123,-318.6525)"
     inkscape:export-xdpi="191.85724"
     inkscape:export-ydpi="191.85724">
    <g
       id="g4445"
       transform="matrix(0.13774504,5.6212551e-4,-5.6282652e-4,0.13791653,-1854.944,641.2284)">
      <g
         id="g4447"
         style="fill:#a4c639">
        <g
           id="use4449"
           style="stroke:#ffffff;stroke-width:19.28690147">
          <ellipse
             cx="0"
             cy="41"
             rx="91"
             ry="84"
             id="ellipse4559" />
          <rect
             rx="22"
             height="182"
             width="182"
             y="20"
             x="-91"
             id="rect4561" />
        </g>
        <g
           style="stroke:#ffffff;stroke-width:9.64345074"
           id="use4451"
           transform="scale(-1,1)">
          <rect
             style="stroke-width:9.64345074"
             rx="6.5"
             transform="matrix(0.87461971,0.48480962,-0.48480962,0.87461971,0,0)"
             height="86"
             width="13"
             y="-86"
             x="14"
             id="rect4517" />
          <rect
             style="stroke-width:9.64345074"
             id="rect4519"
             rx="24"
             height="133"
             width="48"
             y="41"
             x="-143" />
          <rect
             style="stroke-width:9.64345074"
             id="use4521"
             rx="24"
             height="133"
             width="48"
             y="138"
             x="-58" />
        </g>
        <g
           id="g4453"
           style="stroke:#ffffff;stroke-width:9.64345074">
          <rect
             id="rect4455"
             x="14"
             y="-86"
             width="13"
             height="86"
             transform="matrix(0.87461971,0.48480962,-0.48480962,0.87461971,0,0)"
             rx="6.5"
             style="stroke-width:9.64345074" />
          <rect
             x="-143"
             y="41"
             width="48"
             height="133"
             rx="24"
             id="rect4457"
             style="stroke-width:9.64345074" />
          <rect
             style="stroke-width:9.64345074"
             id="use4459"
             rx="24"
             height="133"
             width="48"
             y="138"
             x="-58" />
        </g>
        <g
           id="g4461">
          <ellipse
             id="ellipse4463"
             ry="84"
             rx="91"
             cy="41"
             cx="0" />
          <rect
             id="rect4465"
             x="-91"
             y="20"
             width="182"
             height="182"
             rx="22" />
        </g>
      </g>
      <g
         id="g4467"
         style="fill:#ffffff;stroke:#ffffff;stroke-width:9.64345074">
        <path
           id="path4469"
           d="m -95,44.5 190,0"
           inkscape:connector-curvature="0"
           style="stroke-width:9.64345074" />
        <circle
           id="circle4471"
           r="4"
           cx="-42"
           cy="0"
           style="stroke-width:9.64345074" />
        <circle
           id="circle4473"
           r="4"
           cx="42"
           cy="0"
           style="stroke-width:9.64345074" />
      </g>
    </g>
    <circle
       r="2.5150378"
       cy="640.79425"
       cx="-1859.8737"
       id="circle4475"
       style="opacity:1;fill:#ffffff;fill-opacity:1;fill-rule:nonzero;stroke:none;stroke-width:1;stroke-linecap:round;stroke-linejoin:miter;stroke-miterlimit:4;stroke-dasharray:none;stroke-dashoffset:0;stroke-opacity:0.62000002" />
    <path
       inkscape:transform-center-y="0.44911389"
       inkscape:transform-center-x="0.98805055"
       style="fill:none;fill-rule:evenodd;stroke:#000000;stroke-width:1.59469831px;stroke-linecap:butt;stroke-linejoin:miter;stroke-opacity:1"
       d="m -1856.7351,636.8779 -7.941,4.68891"
       id="path4477"
       inkscape:connector-curvature="0" />
    <path
       sodipodi:nodetypes="ccc"
       inkscape:connector-curvature="0"
       id="path4479"
       d="m -1863.1072,643.21946 3.3234,-0.89823 2.8743,0.17965"
       style="fill:none;fill-rule:evenodd;stroke:#000000;stroke-width:0.5;stroke-linecap:butt;stroke-linejoin:miter;stroke-miterlimit:4;stroke-dasharray:none;stroke-opacity:1" />
    <ellipse
       ry="2.0800931"
       rx="3.3656614"
       cy="644.521"
       cx="-1859.4133"
       id="ellipse4481"
       style="opacity:1;fill:#a4c639;fill-opacity:1;fill-rule:nonzero;stroke:none;stroke-width:0.5;stroke-linecap:round;stroke-linejoin:miter;stroke-miterlimit:4;stroke-dasharray:none;stroke-dashoffset:0;stroke-opacity:0.62000002" />
    <circle
       transform="scale(-1,1)"
       style="opacity:1;fill:#ffffff;fill-opacity:1;fill-rule:nonzero;stroke:none;stroke-width:1;stroke-linecap:round;stroke-linejoin:miter;stroke-miterlimit:4;stroke-dasharray:none;stroke-dashoffset:0;stroke-opacity:0.62000002"
       id="circle4483"
       cx="1849.8929"
       cy="640.79425"
       r="2.5150378" />
    <path
       inkscape:connector-curvature="0"
       id="path4485"
       d="m -1853.0315,636.8779 7.941,4.68891"
       style="fill:none;fill-rule:evenodd;stroke:#000000;stroke-width:1.59469831px;stroke-linecap:butt;stroke-linejoin:miter;stroke-opacity:1"
       inkscape:transform-center-x="-0.98803007"
       inkscape:transform-center-y="0.44911389" />
    <path
       style="fill:none;fill-rule:evenodd;stroke:#000000;stroke-width:0.5;stroke-linecap:butt;stroke-linejoin:miter;stroke-miterlimit:4;stroke-dasharray:none;stroke-opacity:1"
       d="m -1846.6594,643.21946 -3.3234,-0.89823 -2.8743,0.17965"
       id="path4487"
       inkscape:connector-curvature="0"
       sodipodi:nodetypes="ccc" />
    <ellipse
       transform="scale(-1,1)"
       style="opacity:1;fill:#a4c639;fill-opacity:1;fill-rule:nonzero;stroke:none;stroke-width:0.5;stroke-linecap:round;stroke-linejoin:miter;stroke-miterlimit:4;stroke-dasharray:none;stroke-dashoffset:0;stroke-opacity:0.62000002"
       id="ellipse4489"
       cx="1850.3533"
       cy="644.521"
       rx="3.3656614"
       ry="2.0800931" />
  </g>
  <path
     inkscape:connector-curvature="0"
     id="path4613"
     d="m 91.808125,351.73174 37.744085,37.90234 0,9.3125 c 0,8.58034 6.9079,15.48828 15.4883,15.48828 l 124,0 c 8.58035,0 15.48835,-6.90794 15.48835,-15.48828 l 0,-17.29492 c 0,-8.58034 -6.908,-15.48828 -15.48835,-15.48828 l -122.9141,0 -54.318285,-14.43164 z"
     style="opacity:1;fill:#a4c639;fill-opacity:1;fill-rule:nonzero;stroke:#000000;stroke-width:1;stroke-linecap:round;stroke-linejoin:miter;stroke-miterlimit:4;stroke-dasharray:none;stroke-dashoffset:0;stroke-opacity:0.62000002"
     inkscape:export-xdpi="191.85724"
     inkscape:export-ydpi="191.85724" />
  <g
     style="font-style:normal;font-weight:normal;font-size:13.07380581px;line-height:125%;font-family:sans-serif;letter-spacing:0px;word-spacing:0px;fill:#ffffff;fill-opacity:0.92666668;stroke:none;stroke-width:1px;stroke-linecap:butt;stroke-linejoin:miter;stroke-opacity:1"
     id="text4615"
     transform="translate(-727.36324,42.393906)">
    <path
       d="m 870.70376,333.25784 0,2.03001 2.41942,0 0,0.91287 -2.41942,0 0,3.88129 q 0,0.87456 0.2362,1.12353 0.24258,0.24896 0.9767,0.24896 l 1.20652,0 0,0.98309 -1.20652,0 q -1.35972,0 -1.8768,-0.50431 -0.51708,-0.5107 -0.51708,-1.85127 l 0,-3.88129 -0.8618,0 0,-0.91287 0.8618,0 0,-2.03001 1.18098,0 z"
       id="path12759"
       inkscape:connector-curvature="0" />
    <path
       d="m 880.61764,338.12221 0,4.31538 -1.1746,0 0,-4.27707 q 0,-1.01501 -0.39579,-1.51932 -0.39579,-0.50431 -1.18737,-0.50431 -0.95117,0 -1.50017,0.60645 -0.54899,0.60645 -0.54899,1.65337 l 0,4.04088 -1.18099,0 0,-9.93303 1.18099,0 0,3.89406 q 0.42132,-0.64476 0.98947,-0.96394 0.57453,-0.31919 1.32142,-0.31919 1.23206,0 1.86404,0.76605 0.63199,0.75966 0.63199,2.24067 z"
       id="path12761"
       inkscape:connector-curvature="0" />
    <path
       d="m 889.0888,338.56907 0,0.57454 -5.40061,0 q 0.0766,1.2129 0.72775,1.85127 0.65752,0.63198 1.82573,0.63198 0.67667,0 1.30866,-0.16597 0.63837,-0.16598 1.26397,-0.49793 l 0,1.11076 q -0.63198,0.26812 -1.29589,0.40856 -0.6639,0.14044 -1.34696,0.14044 -1.71083,0 -2.71307,-0.99586 -0.99585,-0.99585 -0.99585,-2.69392 0,-1.75551 0.94478,-2.78329 0.95117,-1.03416 2.55986,-1.03416 1.44272,0 2.27898,0.93202 0.84265,0.92564 0.84265,2.52156 z m -1.1746,-0.34472 q -0.0128,-0.96393 -0.54261,-1.53847 -0.52347,-0.57453 -1.39165,-0.57453 -0.98309,0 -1.57677,0.55538 -0.5873,0.55538 -0.67667,1.56401 l 4.1877,-0.006 z"
       id="path12763"
       inkscape:connector-curvature="0" />
    <path
       d="m 899.88363,336.37308 0,-3.86852 1.1746,0 0,9.93303 -1.1746,0 0,-1.07246 q -0.37026,0.63837 -0.9384,0.95117 -0.56177,0.30642 -1.35335,0.30642 -1.29589,0 -2.113,-1.03416 -0.81073,-1.03416 -0.81073,-2.71945 0,-1.6853 0.81073,-2.71946 0.81711,-1.03416 2.113,-1.03416 0.79158,0 1.35335,0.31281 0.56814,0.30641 0.9384,0.94478 z m -4.00258,2.49603 q 0,1.29589 0.52985,2.03639 0.53623,0.73413 1.46825,0.73413 0.93202,0 1.46825,-0.73413 0.53623,-0.7405 0.53623,-2.03639 0,-1.29589 -0.53623,-2.03002 -0.53623,-0.74051 -1.46825,-0.74051 -0.93202,0 -1.46825,0.74051 -0.52985,0.73413 -0.52985,2.03002 z"
       id="path12765"
       inkscape:connector-curvature="0" />
    <path
       d="m 906.24817,336.11135 q -0.94479,0 -1.49378,0.74051 -0.549,0.73412 -0.549,2.01725 0,1.28312 0.54261,2.02363 0.549,0.73412 1.50017,0.73412 0.9384,0 1.4874,-0.74051 0.549,-0.7405 0.549,-2.01724 0,-1.27036 -0.549,-2.01087 -0.549,-0.74689 -1.4874,-0.74689 z m 0,-0.99586 q 1.53209,0 2.40665,0.99586 0.87457,0.99586 0.87457,2.75776 0,1.75551 -0.87457,2.75775 -0.87456,0.99586 -2.40665,0.99586 -1.53847,0 -2.41304,-0.99586 -0.86818,-1.00224 -0.86818,-2.75775 0,-1.7619 0.86818,-2.75776 0.87457,-0.99586 2.41304,-0.99586 z"
       id="path12767"
       inkscape:connector-curvature="0" />
    <path
       d="m 917.03661,336.66035 q 0.44048,-0.79158 1.05331,-1.16822 0.61284,-0.37664 1.44272,-0.37664 1.11715,0 1.7236,0.7852 0.60645,0.77881 0.60645,2.22152 l 0,4.31538 -1.18099,0 0,-4.27707 q 0,-1.02778 -0.36387,-1.52571 -0.36387,-0.49792 -1.11076,-0.49792 -0.91287,0 -1.44271,0.60645 -0.52985,0.60645 -0.52985,1.65337 l 0,4.04088 -1.18098,0 0,-4.27707 q 0,-1.03416 -0.36388,-1.52571 -0.36387,-0.49792 -1.12353,-0.49792 -0.9001,0 -1.42994,0.61283 -0.52985,0.60645 -0.52985,1.64699 l 0,4.04088 -1.18098,0 0,-7.14974 1.18098,0 0,1.11077 q 0.40217,-0.65752 0.96394,-0.97032 0.56176,-0.31281 1.33419,-0.31281 0.77881,0 1.32143,0.39579 0.54899,0.39579 0.81072,1.14907 z"
       id="path12769"
       inkscape:connector-curvature="0" />
    <path
       d="m 927.46119,338.84357 q -1.42357,0 -1.97257,0.32557 -0.54899,0.32557 -0.54899,1.11076 0,0.6256 0.40855,0.99586 0.41494,0.36387 1.12353,0.36387 0.97671,0 1.56401,-0.68944 0.59368,-0.69582 0.59368,-1.84489 l 0,-0.26173 -1.16821,0 z m 2.34281,-0.48516 0,4.07918 -1.1746,0 0,-1.08523 q -0.40217,0.65114 -1.00224,0.96394 -0.60007,0.30642 -1.46825,0.30642 -1.09799,0 -1.74913,-0.61284 -0.64475,-0.61921 -0.64475,-1.65337 0,-1.20652 0.80434,-1.81936 0.81073,-0.61283 2.41304,-0.61283 l 1.64699,0 0,-0.11491 q 0,-0.81073 -0.53623,-1.2512 -0.52985,-0.44686 -1.49378,-0.44686 -0.61284,0 -1.19375,0.14683 -0.58092,0.14682 -1.11715,0.44047 l 0,-1.08523 q 0.64475,-0.24896 1.2512,-0.37025 0.60645,-0.12768 1.18099,-0.12768 1.55123,0 2.31728,0.80435 0.76604,0.80435 0.76604,2.43857 z"
       id="path12771"
       inkscape:connector-curvature="0" />
    <path
       d="m 932.22981,335.28785 1.1746,0 0,7.14974 -1.1746,0 0,-7.14974 z m 0,-2.78329 1.1746,0 0,1.4874 -1.1746,0 0,-1.4874 z"
       id="path12773"
       inkscape:connector-curvature="0" />
    <path
       d="m 941.79896,338.12221 0,4.31538 -1.1746,0 0,-4.27707 q 0,-1.01501 -0.39579,-1.51932 -0.39579,-0.50431 -1.18737,-0.50431 -0.95117,0 -1.50016,0.60645 -0.549,0.60645 -0.549,1.65337 l 0,4.04088 -1.18099,0 0,-7.14974 1.18099,0 0,1.11077 q 0.42132,-0.64476 0.98947,-0.96394 0.57453,-0.31919 1.32143,-0.31919 1.23205,0 1.86403,0.76605 0.63199,0.75966 0.63199,2.24067 z"
       id="path12775"
       inkscape:connector-curvature="0" />
    <path
       d="m 953.0215,336.37308 0,-3.86852 1.1746,0 0,9.93303 -1.1746,0 0,-1.07246 q -0.37026,0.63837 -0.9384,0.95117 -0.56177,0.30642 -1.35335,0.30642 -1.29589,0 -2.113,-1.03416 -0.81073,-1.03416 -0.81073,-2.71945 0,-1.6853 0.81073,-2.71946 0.81711,-1.03416 2.113,-1.03416 0.79158,0 1.35335,0.31281 0.56814,0.30641 0.9384,0.94478 z m -4.00258,2.49603 q 0,1.29589 0.52985,2.03639 0.53623,0.73413 1.46825,0.73413 0.93202,0 1.46825,-0.73413 0.53623,-0.7405 0.53623,-2.03639 0,-1.29589 -0.53623,-2.03002 -0.53623,-0.74051 -1.46825,-0.74051 -0.93202,0 -1.46825,0.74051 -0.52985,0.73413 -0.52985,2.03002 z"
       id="path12777"
       inkscape:connector-curvature="0" />
    <path
       d="m 959.38604,336.11135 q -0.94479,0 -1.49379,0.74051 -0.54899,0.73412 -0.54899,2.01725 0,1.28312 0.54261,2.02363 0.549,0.73412 1.50017,0.73412 0.9384,0 1.4874,-0.74051 0.549,-0.7405 0.549,-2.01724 0,-1.27036 -0.549,-2.01087 -0.549,-0.74689 -1.4874,-0.74689 z m 0,-0.99586 q 1.53208,0 2.40665,0.99586 0.87457,0.99586 0.87457,2.75776 0,1.75551 -0.87457,2.75775 -0.87457,0.99586 -2.40665,0.99586 -1.53847,0 -2.41304,-0.99586 -0.86818,-1.00224 -0.86818,-2.75775 0,-1.7619 0.86818,-2.75776 0.87457,-0.99586 2.41304,-0.99586 z"
       id="path12779"
       inkscape:connector-curvature="0" />
    <path
       d="m 970.72348,338.56907 0,0.57454 -5.40061,0 q 0.0766,1.2129 0.72774,1.85127 0.65753,0.63198 1.82574,0.63198 0.67667,0 1.30866,-0.16597 0.63837,-0.16598 1.26397,-0.49793 l 0,1.11076 q -0.63199,0.26812 -1.29589,0.40856 -0.6639,0.14044 -1.34696,0.14044 -1.71083,0 -2.71307,-0.99586 -0.99586,-0.99585 -0.99586,-2.69392 0,-1.75551 0.94479,-2.78329 0.95117,-1.03416 2.55986,-1.03416 1.44272,0 2.27898,0.93202 0.84265,0.92564 0.84265,2.52156 z m -1.1746,-0.34472 q -0.0128,-0.96393 -0.54261,-1.53847 -0.52347,-0.57453 -1.39165,-0.57453 -0.98309,0 -1.57677,0.55538 -0.5873,0.55538 -0.67667,1.56401 l 4.1877,-0.006 z"
       id="path12781"
       inkscape:connector-curvature="0" />
    <path
       d="m 977.20931,335.49852 0,1.11076 q -0.49792,-0.25535 -1.03415,-0.38302 -0.53623,-0.12768 -1.11077,-0.12768 -0.87456,0 -1.31504,0.26812 -0.43409,0.26811 -0.43409,0.80434 0,0.40856 0.3128,0.64476 0.3128,0.22981 1.25759,0.44047 l 0.40217,0.0894 q 1.25121,0.26812 1.77467,0.75966 0.52985,0.48516 0.52985,1.35973 0,0.99586 -0.79158,1.57677 -0.7852,0.58092 -2.16407,0.58092 -0.57454,0 -1.20014,-0.11491 -0.61922,-0.10852 -1.30866,-0.33195 l 0,-1.2129 q 0.65114,0.33833 1.28313,0.51069 0.63198,0.16598 1.2512,0.16598 0.82988,0 1.27674,-0.28088 0.44686,-0.28727 0.44686,-0.80435 0,-0.47878 -0.32557,-0.73412 -0.31919,-0.25535 -1.4108,-0.49155 l -0.40855,-0.0958 q -1.09161,-0.22982 -1.57678,-0.70221 -0.48516,-0.47878 -0.48516,-1.30866 0,-1.00862 0.71498,-1.55762 0.71497,-0.549 2.03001,-0.549 0.65114,0 1.22567,0.0958 0.57453,0.0958 1.05969,0.28727 z"
       id="path12783"
       inkscape:connector-curvature="0" />
    <path
       d="m 985.41236,338.12221 0,4.31538 -1.1746,0 0,-4.27707 q 0,-1.01501 -0.39579,-1.51932 -0.39578,-0.50431 -1.18736,-0.50431 -0.95117,0 -1.50017,0.60645 -0.549,0.60645 -0.549,1.65337 l 0,4.04088 -1.18098,0 0,-7.14974 1.18098,0 0,1.11077 q 0.42133,-0.64476 0.98947,-0.96394 0.57454,-0.31919 1.32143,-0.31919 1.23205,0 1.86404,0.76605 0.63198,0.75966 0.63198,2.24067 z"
       id="path12785"
       inkscape:connector-curvature="0" />
    <path
       d="m 988.8787,332.90674 0,3.54295 -1.08522,0 0,-3.54295 1.08522,0 z"
       id="path12787"
       inkscape:connector-curvature="0" />
    <path
       d="m 992.53018,333.25784 0,2.03001 2.41942,0 0,0.91287 -2.41942,0 0,3.88129 q 0,0.87456 0.2362,1.12353 0.24258,0.24896 0.97671,0.24896 l 1.20651,0 0,0.98309 -1.20651,0 q -1.35973,0 -1.87681,-0.50431 -0.51708,-0.5107 -0.51708,-1.85127 l 0,-3.88129 -0.8618,0 0,-0.91287 0.8618,0 0,-2.03001 1.18098,0 z"
       id="path12789"
       inkscape:connector-curvature="0" />
    <path
       d="m 869.49724,348.84682 1.18099,0 0,5.86662 3.50464,-3.08333 1.50017,0 -3.79191,3.34506 3.9515,3.80468 -1.53208,0 -3.63232,-3.49188 0,3.49188 -1.18099,0 0,-9.93303 z"
       id="path12791"
       inkscape:connector-curvature="0" />
    <path
       d="m 883.06898,354.46447 0,4.31538 -1.1746,0 0,-4.27708 q 0,-1.015 -0.39579,-1.51932 -0.39579,-0.50431 -1.18737,-0.50431 -0.95117,0 -1.50017,0.60645 -0.549,0.60645 -0.549,1.65338 l 0,4.04088 -1.18098,0 0,-7.14974 1.18098,0 0,1.11076 q 0.42133,-0.64475 0.98948,-0.96393 0.57453,-0.31919 1.32142,-0.31919 1.23206,0 1.86404,0.76604 0.63199,0.75966 0.63199,2.24068 z"
       id="path12793"
       inkscape:connector-curvature="0" />
    <path
       d="m 888.19508,352.45361 q -0.94478,0 -1.49378,0.74051 -0.549,0.73412 -0.549,2.01724 0,1.28313 0.54261,2.02363 0.549,0.73413 1.50017,0.73413 0.93841,0 1.4874,-0.74051 0.549,-0.74051 0.549,-2.01725 0,-1.27035 -0.549,-2.01086 -0.54899,-0.74689 -1.4874,-0.74689 z m 0,-0.99586 q 1.53209,0 2.40666,0.99586 0.87456,0.99585 0.87456,2.75775 0,1.75552 -0.87456,2.75776 -0.87457,0.99586 -2.40666,0.99586 -1.53847,0 -2.41303,-0.99586 -0.86819,-1.00224 -0.86819,-2.75776 0,-1.7619 0.86819,-2.75775 0.87456,-0.99586 2.41303,-0.99586 z"
       id="path12795"
       inkscape:connector-curvature="0" />
    <path
       d="m 892.73389,351.63011 1.1746,0 1.46825,5.57935 1.46187,-5.57935 1.38526,0 1.46825,5.57935 1.46186,-5.57935 1.1746,0 -1.87042,7.14974 -1.38526,0 -1.53847,-5.86023 -1.54486,5.86023 -1.38526,0 -1.87042,-7.14974 z"
       id="path12797"
       inkscape:connector-curvature="0" />
    <path
       d="m 913.84477,353.00261 q 0.44047,-0.79158 1.05331,-1.16822 0.61283,-0.37664 1.44271,-0.37664 1.11715,0 1.7236,0.7852 0.60645,0.77881 0.60645,2.22152 l 0,4.31538 -1.18099,0 0,-4.27708 q 0,-1.02777 -0.36387,-1.5257 -0.36387,-0.49793 -1.11076,-0.49793 -0.91287,0 -1.44271,0.60645 -0.52985,0.60645 -0.52985,1.65338 l 0,4.04088 -1.18098,0 0,-4.27708 q 0,-1.03415 -0.36387,-1.5257 -0.36387,-0.49793 -1.12353,-0.49793 -0.90011,0 -1.42995,0.61284 -0.52985,0.60645 -0.52985,1.64699 l 0,4.04088 -1.18098,0 0,-7.14974 1.18098,0 0,1.11076 q 0.40217,-0.65752 0.96394,-0.97032 0.56176,-0.3128 1.33419,-0.3128 0.77881,0 1.32143,0.39579 0.54899,0.39579 0.81073,1.14907 z"
       id="path12799"
       inkscape:connector-curvature="0" />
    <path
       d="m 927.13562,354.91133 0,0.57453 -5.40061,0 q 0.0766,1.2129 0.72774,1.85127 0.65753,0.63199 1.82574,0.63199 0.67667,0 1.30866,-0.16598 0.63837,-0.16597 1.26397,-0.49792 l 0,1.11076 q -0.63199,0.26811 -1.29589,0.40855 -0.6639,0.14045 -1.34696,0.14045 -1.71083,0 -2.71307,-0.99586 -0.99586,-0.99586 -0.99586,-2.69392 0,-1.75552 0.94479,-2.78329 0.95117,-1.03416 2.55986,-1.03416 1.44272,0 2.27898,0.93202 0.84265,0.92564 0.84265,2.52156 z m -1.1746,-0.34472 q -0.0128,-0.96394 -0.54261,-1.53847 -0.52347,-0.57453 -1.39165,-0.57453 -0.98309,0 -1.57677,0.55538 -0.5873,0.55538 -0.67667,1.564 l 4.1877,-0.006 z"
       id="path12801"
       inkscape:connector-curvature="0" />
    <path
       d="m 936.04726,348.85959 q -0.85542,1.46825 -1.27036,2.90458 -0.41494,1.43633 -0.41494,2.91096 0,1.47464 0.41494,2.92374 0.42132,1.44271 1.27036,2.90458 l -1.02139,0 q -0.95756,-1.50017 -1.43634,-2.94927 -0.47239,-1.4491 -0.47239,-2.87905 0,-1.42356 0.47239,-2.86628 0.4724,-1.44271 1.43634,-2.94926 l 1.02139,0 z"
       id="path12803"
       inkscape:connector-curvature="0" />
    <path
       d="m 945.68663,353.97293 0.38941,0 q -1.40442,2.04916 -3.77915,2.04916 -2.36835,0 -3.77915,-2.04916 l 0.39579,0 q 1.16822,1.26397 3.38336,1.26397 2.22153,0 3.38974,-1.26397 z"
       id="path12805"
       inkscape:connector-curvature="0" />
    <path
       d="m 954.15779,360.9503 0,0.91287 -6.79225,0 0,-0.91287 6.79225,0 z"
       id="path12807"
       inkscape:connector-curvature="0" />
    <path
       d="m 962.61619,353.97293 0.3894,0 q -1.40441,2.04916 -3.77914,2.04916 -2.36835,0 -3.77915,-2.04916 l 0.39579,0 q 1.16822,1.26397 3.38336,1.26397 2.22152,0 3.38974,-1.26397 z"
       id="path12809"
       inkscape:connector-curvature="0" />
    <path
       d="m 966.057,349.24899 1.34696,0 0,1.098 -1.04693,2.04278 -0.82349,0 0.52346,-2.04278 0,-1.098 z m 2.61732,0 1.34696,0 0,1.098 -1.04693,2.04278 -0.8235,0 0.52347,-2.04278 0,-1.098 z"
       id="path12811"
       inkscape:connector-curvature="0" />
    <path
       d="m 972.23642,348.85959 1.02139,0 q 0.95755,1.50655 1.42995,2.94926 0.47877,1.44272 0.47877,2.86628 0,1.42995 -0.47877,2.87905 -0.4724,1.4491 -1.42995,2.94927 l -1.02139,0 q 0.84903,-1.46187 1.26397,-2.90458 0.42132,-1.4491 0.42132,-2.92374 0,-1.47463 -0.42132,-2.91096 -0.41494,-1.43633 -1.26397,-2.90458 z"
       id="path12813"
       inkscape:connector-curvature="0" />
  </g>
  <rect
     y="0"
     x="376.84796"
     height="81.801331"
     width="103.72855"
     id="rect4737"
     style="opacity:1;fill:#3a3a3a;fill-opacity:0.73333333;fill-rule:nonzero;stroke:none;stroke-width:1;stroke-linecap:round;stroke-linejoin:miter;stroke-miterlimit:4;stroke-dasharray:none;stroke-dashoffset:0;stroke-opacity:1"
     ry="23.37326" />
  <path
     inkscape:connector-curvature="0"
     id="path4739"
     d="m 410.88216,31.303136 -21.2129,17.16211 21.2129,17.16015 0,-7.94336 33.3574,0 a 13.571428,13.571428 0 0 0 9.9453,4.35352 13.571428,13.571428 0 0 0 13.5703,-13.57031 13.571428,13.571428 0 0 0 -13.5703,-13.57227 13.571428,13.571428 0 0 0 -9.9375,4.35352 l -33.3652,0 0,-7.94336 z"
     style="opacity:1;fill:#ffffff;fill-opacity:0.81333331;fill-rule:nonzero;stroke:none;stroke-width:1;stroke-linecap:round;stroke-linejoin:miter;stroke-miterlimit:4;stroke-dasharray:none;stroke-dashoffset:0;stroke-opacity:1" />
  <g
     style="font-style:normal;font-weight:normal;font-size:13.43721104px;line-height:125%;font-family:sans-serif;letter-spacing:0px;word-spacing:0px;fill:#ffffff;fill-opacity:0.81333331;stroke:none;stroke-width:1px;stroke-linecap:butt;stroke-linejoin:miter;stroke-opacity:1"
     id="text4741"
     transform="translate(-727.36324,42.393906)">
    <path
       d="m 1117.211,-15.262939 q -0.7326,0 -1.2855,-0.290291 -0.553,-0.290291 -0.9262,-0.801756 -0.4009,-0.546023 -0.6013,-1.299397 -0.2005,-0.760285 -0.2005,-1.693363 0,-0.919254 0.1936,-1.672628 0.2004,-0.760286 0.6082,-1.299398 0.4078,-0.539111 0.9746,-0.801755 0.5667,-0.269556 1.2371,-0.269556 0.705,0 1.2303,0.297203 0.5322,0.304114 0.8363,0.877784 l 0,-4.001867 1.2718,0 0,10.754585 -1.1474,0 -0.1244,-0.974548 q -0.1589,0.276468 -0.3594,0.497642 -0.2004,0.214262 -0.4838,0.373231 -0.5253,0.304114 -1.2234,0.304114 z m 0.1797,-1.078223 q 0.9331,0 1.41,-0.760286 0.4769,-0.753374 0.4769,-2.225563 0,-1.472189 -0.4769,-2.232475 -0.2211,-0.352496 -0.5667,-0.552935 -0.3456,-0.200439 -0.8363,-0.200439 -0.9262,0 -1.3893,0.753374 -0.47,0.760286 -0.47,2.232475 0,1.472189 0.47,2.232475 0.2419,0.393966 0.5944,0.57367 0.3525,0.179704 0.7879,0.179704 z"
       style="font-style:normal;font-variant:normal;font-weight:normal;font-stretch:normal;font-size:14.15513515px;font-family:Hack;-inkscape-font-specification:Hack;fill:#ffffff;fill-opacity:0.81333331"
       id="path12875"
       inkscape:connector-curvature="0" />
    <path
       d="m 1126.5418,-15.262939 q -0.8916,0 -1.6035,-0.269556 -0.705,-0.276467 -1.2026,-0.808667 -0.4977,-0.5322 -0.7603,-1.278662 -0.2557,-0.753374 -0.2557,-1.700275 0,-0.974548 0.2626,-1.707187 0.2626,-0.739551 0.7257,-1.257927 0.5046,-0.559847 1.1819,-0.829403 0.6774,-0.276467 1.4584,-0.276467 0.7741,0 1.3547,0.255732 0.5875,0.255733 1.0022,0.739551 0.4147,0.483818 0.6289,1.174987 0.2212,0.684257 0.2212,1.568953 l 0,0.622052 -5.5086,0 0,0.04147 q 0,1.264838 0.6635,1.956007 0.318,0.331761 0.7672,0.511465 0.4562,0.179704 1.0852,0.179704 0.6289,0 1.2786,-0.193527 0.6705,-0.200439 1.4169,-0.587494 l 0,1.264839 q -0.3663,0.152057 -0.7119,0.262644 -0.3456,0.110587 -0.6842,0.186616 -0.3318,0.07603 -0.6636,0.110587 -0.3317,0.03456 -0.6566,0.03456 z m 1.7418,-4.762152 q -0.014,-0.594406 -0.159,-1.016018 -0.1382,-0.428525 -0.3663,-0.691169 -0.2488,-0.290291 -0.6152,-0.435436 -0.3663,-0.145146 -0.8225,-0.145146 -0.933,0 -1.5205,0.608229 -0.5944,0.61514 -0.705,1.686451 l 4.1885,-0.0069 z"
       style="font-style:normal;font-variant:normal;font-weight:normal;font-stretch:normal;font-size:14.15513515px;font-family:Hack;-inkscape-font-specification:Hack;fill:#ffffff;fill-opacity:0.81333331"
       id="path12877"
       inkscape:connector-curvature="0" />
    <path
       d="m 1131.691,-23.204467 1.1543,0 0.1244,0.988371 q 0.3248,-0.580582 0.8501,-0.877784 0.5253,-0.297203 1.2234,-0.297203 0.6912,0 1.2441,0.269556 0.5529,0.269556 0.9538,0.815579 0.4009,0.546023 0.5944,1.299397 0.2005,0.746462 0.2005,1.693363 0,1.900714 -0.8018,2.972026 -0.8018,1.078223 -2.1979,1.078223 -0.394,0 -0.6843,-0.08294 -0.2903,-0.07603 -0.546,-0.221174 -0.5391,-0.311026 -0.8363,-0.870873 l 0,3.918927 -1.2787,0 0,-10.685468 z m 3.1587,6.863305 q 0.9261,0 1.3892,-0.753374 0.4631,-0.753374 0.4631,-2.232475 0,-1.479101 -0.4631,-2.232475 -0.4631,-0.753374 -1.3892,-0.753374 -0.9262,0 -1.4031,0.753374 -0.4769,0.760286 -0.4769,2.232475 0,1.472189 0.4769,2.225563 0.4769,0.760286 1.4031,0.760286 z"
       style="font-style:normal;font-variant:normal;font-weight:normal;font-stretch:normal;font-size:14.15513515px;font-family:Hack;-inkscape-font-specification:Hack;fill:#ffffff;fill-opacity:0.81333331"
       id="path12879"
       inkscape:connector-curvature="0" />
    <path
       d="m 1143.5722,-15.262939 q -0.8916,0 -1.6035,-0.269556 -0.705,-0.276467 -1.2026,-0.808667 -0.4977,-0.5322 -0.7603,-1.278662 -0.2557,-0.753374 -0.2557,-1.700275 0,-0.974548 0.2626,-1.707187 0.2626,-0.739551 0.7257,-1.257927 0.5046,-0.559847 1.1819,-0.829403 0.6774,-0.276467 1.4584,-0.276467 0.7741,0 1.3547,0.255732 0.5875,0.255733 1.0022,0.739551 0.4147,0.483818 0.6289,1.174987 0.2212,0.684257 0.2212,1.568953 l 0,0.622052 -5.5086,0 0,0.04147 q 0,1.264838 0.6635,1.956007 0.318,0.331761 0.7672,0.511465 0.4562,0.179704 1.0852,0.179704 0.6289,0 1.2786,-0.193527 0.6705,-0.200439 1.4169,-0.587494 l 0,1.264839 q -0.3663,0.152057 -0.7119,0.262644 -0.3456,0.110587 -0.6842,0.186616 -0.3318,0.07603 -0.6636,0.110587 -0.3317,0.03456 -0.6566,0.03456 z m 1.7418,-4.762152 q -0.014,-0.594406 -0.159,-1.016018 -0.1382,-0.428525 -0.3663,-0.691169 -0.2488,-0.290291 -0.6152,-0.435436 -0.3663,-0.145146 -0.8225,-0.145146 -0.933,0 -1.5205,0.608229 -0.5944,0.61514 -0.705,1.686451 l 4.1885,-0.0069 z"
       style="font-style:normal;font-variant:normal;font-weight:normal;font-stretch:normal;font-size:14.15513515px;font-family:Hack;-inkscape-font-specification:Hack;fill:#ffffff;fill-opacity:0.81333331"
       id="path12881"
       inkscape:connector-curvature="0" />
    <path
       d="m 1148.756,-23.204467 1.1473,0 0.1244,1.161163 q 0.3456,-0.670434 0.9193,-1.009106 0.5737,-0.338673 1.3685,-0.338673 0.6221,0 1.0575,0.200439 0.4354,0.200439 0.7188,0.57367 0.5806,0.781021 0.5806,2.356885 l 0,4.796711 -1.2787,0 0,-4.796711 q 0,-1.043665 -0.3663,-1.534394 -0.3663,-0.49073 -1.1542,-0.49073 -0.4562,0 -0.7949,0.158969 -0.3317,0.158968 -0.5667,0.469994 -0.4839,0.628964 -0.4839,1.817774 l 0,4.375098 -1.2717,0 0,-7.741089 z"
       style="font-style:normal;font-variant:normal;font-weight:normal;font-stretch:normal;font-size:14.15513515px;font-family:Hack;-inkscape-font-specification:Hack;fill:#ffffff;fill-opacity:0.81333331"
       id="path12883"
       inkscape:connector-curvature="0" />
    <path
       d="m 1159.787,-15.262939 q -0.7326,0 -1.2855,-0.290291 -0.553,-0.290291 -0.9262,-0.801756 -0.4009,-0.546023 -0.6013,-1.299397 -0.2005,-0.760285 -0.2005,-1.693363 0,-0.919254 0.1936,-1.672628 0.2004,-0.760286 0.6082,-1.299398 0.4078,-0.539111 0.9745,-0.801755 0.5668,-0.269556 1.2372,-0.269556 0.705,0 1.2303,0.297203 0.5322,0.304114 0.8363,0.877784 l 0,-4.001867 1.2718,0 0,10.754585 -1.1474,0 -0.1244,-0.974548 q -0.1589,0.276468 -0.3594,0.497642 -0.2004,0.214262 -0.4838,0.373231 -0.5253,0.304114 -1.2234,0.304114 z m 0.1797,-1.078223 q 0.9331,0 1.41,-0.760286 0.4769,-0.753374 0.4769,-2.225563 0,-1.472189 -0.4769,-2.232475 -0.2211,-0.352496 -0.5667,-0.552935 -0.3456,-0.200439 -0.8363,-0.200439 -0.9262,0 -1.3893,0.753374 -0.47,0.760286 -0.47,2.232475 0,1.472189 0.47,2.232475 0.2419,0.393966 0.5944,0.57367 0.3525,0.179704 0.7879,0.179704 z"
       style="font-style:normal;font-variant:normal;font-weight:normal;font-stretch:normal;font-size:14.15513515px;font-family:Hack;-inkscape-font-specification:Hack;fill:#ffffff;fill-opacity:0.81333331"
       id="path12885"
       inkscape:connector-curvature="0" />
    <path
       d="m 1169.1178,-15.262939 q -0.8916,0 -1.6035,-0.269556 -0.705,-0.276467 -1.2026,-0.808667 -0.4977,-0.5322 -0.7603,-1.278662 -0.2557,-0.753374 -0.2557,-1.700275 0,-0.974548 0.2626,-1.707187 0.2626,-0.739551 0.7257,-1.257927 0.5046,-0.559847 1.1819,-0.829403 0.6774,-0.276467 1.4584,-0.276467 0.7741,0 1.3547,0.255732 0.5875,0.255733 1.0022,0.739551 0.4147,0.483818 0.6289,1.174987 0.2212,0.684257 0.2212,1.568953 l 0,0.622052 -5.5086,0 0,0.04147 q 0,1.264838 0.6635,1.956007 0.318,0.331761 0.7672,0.511465 0.4562,0.179704 1.0852,0.179704 0.6289,0 1.2786,-0.193527 0.6704,-0.200439 1.4169,-0.587494 l 0,1.264839 q -0.3663,0.152057 -0.7119,0.262644 -0.3456,0.110587 -0.6842,0.186616 -0.3318,0.07603 -0.6636,0.110587 -0.3317,0.03456 -0.6566,0.03456 z m 1.7418,-4.762152 q -0.014,-0.594406 -0.159,-1.016018 -0.1382,-0.428525 -0.3663,-0.691169 -0.2488,-0.290291 -0.6152,-0.435436 -0.3663,-0.145146 -0.8225,-0.145146 -0.933,0 -1.5205,0.608229 -0.5944,0.61514 -0.705,1.686451 l 4.1885,-0.0069 z"
       style="font-style:normal;font-variant:normal;font-weight:normal;font-stretch:normal;font-size:14.15513515px;font-family:Hack;-inkscape-font-specification:Hack;fill:#ffffff;fill-opacity:0.81333331"
       id="path12887"
       inkscape:connector-curvature="0" />
    <path
       d="m 1174.3016,-23.204467 1.1473,0 0.1244,1.161163 q 0.3456,-0.670434 0.9193,-1.009106 0.5737,-0.338673 1.3685,-0.338673 0.6221,0 1.0575,0.200439 0.4354,0.200439 0.7188,0.57367 0.5806,0.781021 0.5806,2.356885 l 0,4.796711 -1.2787,0 0,-4.796711 q 0,-1.043665 -0.3663,-1.534394 -0.3663,-0.49073 -1.1542,-0.49073 -0.4562,0 -0.7949,0.158969 -0.3318,0.158968 -0.5667,0.469994 -0.4839,0.628964 -0.4839,1.817774 l 0,4.375098 -1.2717,0 0,-7.741089 z"
       style="font-style:normal;font-variant:normal;font-weight:normal;font-stretch:normal;font-size:14.15513515px;font-family:Hack;-inkscape-font-specification:Hack;fill:#ffffff;fill-opacity:0.81333331"
       id="path12889"
       inkscape:connector-curvature="0" />
    <path
       d="m 1186.3901,-15.262939 q -0.8639,0 -1.5758,-0.269556 -0.705,-0.276467 -1.2027,-0.808667 -0.5045,-0.539112 -0.7603,-1.285574 -0.2488,-0.753374 -0.2488,-1.700275 0,-0.988371 0.2627,-1.734833 0.2695,-0.746463 0.7533,-1.257928 0.5115,-0.539111 1.2096,-0.801755 0.705,-0.269556 1.5689,-0.269556 0.318,0 0.5875,0.03456 0.2696,0.03456 0.5322,0.110587 0.5253,0.145146 1.0713,0.44926 l 0,1.333956 q -0.2557,-0.221174 -0.5045,-0.387055 -0.2488,-0.16588 -0.5046,-0.262644 -0.5183,-0.200439 -1.1473,-0.200439 -1.2026,0 -1.8454,0.774109 -0.6428,0.781021 -0.6428,2.204828 0,0.663522 0.1451,1.230281 0.1521,0.566758 0.4977,0.981459 0.6497,0.781021 1.8661,0.781021 0.3456,0 0.629,-0.05529 0.2903,-0.05529 0.5322,-0.152057 0.311,-0.117499 0.5322,-0.269556 0.2281,-0.158968 0.4423,-0.359407 l 0,1.320132 q -0.235,0.138234 -0.5114,0.255732 -0.2765,0.117499 -0.5391,0.193528 -0.2419,0.06912 -0.5322,0.103675 -0.2834,0.04147 -0.6152,0.04147 z"
       style="font-style:normal;font-variant:normal;font-weight:normal;font-stretch:normal;font-size:14.15513515px;font-family:Hack;-inkscape-font-specification:Hack;fill:#ffffff;fill-opacity:0.81333331"
       id="path12891"
       inkscape:connector-curvature="0" />
    <path
       d="m 1191.2559,-13.583399 0.7534,0 q 0.311,0 0.5253,-0.09676 0.2143,-0.08985 0.3525,-0.228085 0.1521,-0.158969 0.3456,-0.546024 0.1935,-0.387054 0.4631,-1.133516 l -2.9928,-7.616679 1.3478,0 2.2947,6.054637 2.2601,-6.054637 1.3478,0 -2.039,5.252882 q -0.1659,0.428524 -0.2626,0.663522 -0.09,0.234997 -0.1452,0.373231 -0.048,0.131322 -0.076,0.20735 -0.028,0.06912 -0.062,0.165881 -0.035,0.09676 -0.097,0.255732 -0.055,0.158969 -0.1658,0.463083 -0.2074,0.559847 -0.3594,0.93999 -0.1452,0.380143 -0.2558,0.628963 -0.1106,0.255733 -0.1866,0.400878 -0.069,0.152057 -0.1175,0.241909 -0.1521,0.262644 -0.3387,0.463083 -0.1866,0.207351 -0.4561,0.359408 -0.4769,0.269556 -1.1128,0.269556 l -1.023,0 0,-1.0644 z"
       style="font-style:normal;font-variant:normal;font-weight:normal;font-stretch:normal;font-size:14.15513515px;font-family:Hack;-inkscape-font-specification:Hack;fill:#ffffff;fill-opacity:0.81333331"
       id="path12893"
       inkscape:connector-curvature="0" />
  </g>
</svg>
