<?xml version="1.0" encoding="UTF-8" standalone="no"?>
<svg
   xmlns:dc="http://purl.org/dc/elements/1.1/"
   xmlns:cc="http://creativecommons.org/ns#"
   xmlns:rdf="http://www.w3.org/1999/02/22-rdf-syntax-ns#"
   xmlns:svg="http://www.w3.org/2000/svg"
   xmlns="http://www.w3.org/2000/svg"
   xmlns:xlink="http://www.w3.org/1999/xlink"
   version="1.1"
   id="svg7234"
   viewBox="0 0 480.57654 437.66922"
   height="123.51998mm"
   width="135.62938mm">
  <defs
     id="defs7236">
    <circle
       transform="matrix(-0.96592583,0.25881905,-0.25881905,-0.96592583,0,0)"
       r="174.28571"
       cy="381.62079"
       cx="1616.7683"
       id="path4189"
       style="opacity:1;fill:none;fill-opacity:0.78039216;fill-rule:nonzero;stroke:none;stroke-width:1;stroke-linecap:round;stroke-linejoin:miter;stroke-miterlimit:4;stroke-dasharray:none;stroke-dashoffset:0;stroke-opacity:1" />
    <path
       id="path4150"
       d="m -1772.3566,38.302384 a 112.50001,112.50001 0 0 1 123.4383,-100.37683 112.50001,112.50001 0 0 1 100.3768,123.4382 112.50001,112.50001 0 0 1 -123.4383,100.376826 112.50001,112.50001 0 0 1 -100.3768,-123.438196 z"
       style="opacity:1;fill:none;fill-opacity:0.77999998;fill-rule:nonzero;stroke:none;stroke-width:0.99999994;stroke-linecap:round;stroke-linejoin:miter;stroke-miterlimit:4;stroke-dasharray:none;stroke-dashoffset:0;stroke-opacity:1" />
  </defs>
  <metadata
     id="metadata7239">
    <rdf:RDF>
      <cc:Work
         rdf:about="">
        <dc:format>image/svg+xml</dc:format>
        <dc:type
           rdf:resource="http://purl.org/dc/dcmitype/StillImage" />
        <dc:title></dc:title>
      </cc:Work>
    </rdf:RDF>
  </metadata>
  <g
     transform="translate(-639.79213,-416.29694)"
     id="layer1">
    <circle
       style="opacity:1;fill:#50bda8;fill-opacity:1;fill-rule:nonzero;stroke:none;stroke-width:0.99999994;stroke-linecap:round;stroke-linejoin:miter;stroke-miterlimit:4;stroke-dasharray:none;stroke-dashoffset:0;stroke-opacity:1"
       id="circle4140"
       cx="858.58118"
       cy="635.17712"
       r="218.78905" />
    <circle
       r="156.06857"
       cy="635.17712"
       cx="858.58118"
       id="path4138"
       style="opacity:1;fill:#000000;fill-opacity:0.34000017;fill-rule:nonzero;stroke:none;stroke-width:4;stroke-linecap:round;stroke-linejoin:miter;stroke-miterlimit:4;stroke-dasharray:none;stroke-dashoffset:0;stroke-opacity:1" />
    <circle
       r="91.923882"
       cy="635.17712"
       cx="858.58118"
       id="path4136"
       style="opacity:1;fill:#000000;fill-opacity:0.5;fill-rule:nonzero;stroke:none;stroke-width:4;stroke-linecap:round;stroke-linejoin:miter;stroke-miterlimit:4;stroke-dasharray:none;stroke-dashoffset:0;stroke-opacity:0.75333384" />
    <text
       id="text4142"
       y="651.10236"
       x="778.00745"
       style="font-style:normal;font-weight:normal;font-size:42.71767807px;line-height:125%;font-family:sans-serif;letter-spacing:0px;word-spacing:0px;fill:#ffffff;fill-opacity:0.64666664;stroke:none;stroke-width:1px;stroke-linecap:butt;stroke-linejoin:miter;stroke-opacity:1"
       xml:space="preserve"><tspan
         style="font-style:normal;font-variant:normal;font-weight:normal;font-stretch:normal;font-size:45px;font-family:Hack;-inkscape-font-specification:Hack;fill:#ffffff;fill-opacity:0.64666664"
         y="651.10236"
         x="778.00745"
         id="tspan4144">domain</tspan></text>
    <path
       id="path8175"
       d="m 746.67357,623.64642 a 112.50001,112.50001 0 0 1 123.4383,-100.37683 112.50001,112.50001 0 0 1 100.3768,123.4382 112.50001,112.50001 0 0 1 -123.4383,100.37682 112.50001,112.50001 0 0 1 -100.3768,-123.43819 z"
       style="opacity:1;fill:none;fill-opacity:0.77999998;fill-rule:nonzero;stroke:none;stroke-width:0.99999994;stroke-linecap:round;stroke-linejoin:miter;stroke-miterlimit:4;stroke-dasharray:none;stroke-dashoffset:0;stroke-opacity:1" />
    <text
       id="text4183"
       style="font-style:normal;font-weight:normal;font-size:40px;line-height:125%;font-family:sans-serif;letter-spacing:0px;word-spacing:0px;fill:#ffffff;fill-opacity:0.93333333;stroke:none;stroke-width:1px;stroke-linecap:butt;stroke-linejoin:miter;stroke-opacity:1"
       xml:space="preserve"
       transform="translate(2519.0302,585.34403)"><textPath
         style="font-style:normal;font-variant:normal;font-weight:normal;font-stretch:normal;font-family:Hack;-inkscape-font-specification:Hack;fill:#ffffff;fill-opacity:0.93333333"
         id="textPath4191"
         xlink:href="#path4189">app    cloud     db</textPath></text>
    <circle
       transform="matrix(-0.96592583,0.25881905,-0.25881905,-0.96592583,0,0)"
       r="174.28571"
       cy="-835.7511"
       cx="-664.92981"
       id="circle8181"
       style="opacity:1;fill:none;fill-opacity:0.78039216;fill-rule:nonzero;stroke:none;stroke-width:1;stroke-linecap:round;stroke-linejoin:miter;stroke-miterlimit:4;stroke-dasharray:none;stroke-dashoffset:0;stroke-opacity:1" />
    <path
       style="opacity:1;fill:#ffffff;fill-opacity:0.54000005;fill-rule:nonzero;stroke:none;stroke-width:1;stroke-linecap:round;stroke-linejoin:miter;stroke-miterlimit:4;stroke-dasharray:none;stroke-dashoffset:0;stroke-opacity:1"
       d="m 1002.7123,617.16511 -21.21293,17.16211 21.21293,17.16015 0,-7.94336 33.3574,0 a 13.571428,13.571428 0 0 0 9.9453,4.35352 13.571428,13.571428 0 0 0 13.5703,-13.57031 13.571428,13.571428 0 0 0 -13.5703,-13.57227 13.571428,13.571428 0 0 0 -9.9375,4.35352 l -33.3652,0 0,-7.94336 z"
       id="path4223" />
    <path
       id="path4225"
       d="m 937.27897,661.29705 -26.9519,4.25637 9.7908,25.46757 3.9717,-6.87913 28.8883,16.67868 a 13.571428,13.571428 0 0 0 6.4362,8.74291 13.571428,13.571428 0 0 0 18.5373,-4.96709 13.571428,13.571428 0 0 0 -4.9675,-18.53869 13.571428,13.571428 0 0 0 -10.7829,-1.19848 l -28.895,-16.68261 3.9716,-6.87914 z"
       style="opacity:1;fill:#ffffff;fill-opacity:0.54000005;fill-rule:nonzero;stroke:none;stroke-width:1;stroke-linecap:round;stroke-linejoin:miter;stroke-miterlimit:4;stroke-dasharray:none;stroke-dashoffset:0;stroke-opacity:1" />
    <path
       style="opacity:1;fill:#ffffff;fill-opacity:0.54000005;fill-rule:nonzero;stroke:none;stroke-width:1;stroke-linecap:round;stroke-linejoin:miter;stroke-miterlimit:4;stroke-dasharray:none;stroke-dashoffset:0;stroke-opacity:1"
       d="m 921.44237,577.62628 -9.7909,25.46753 26.952,4.25637 -3.9717,-6.8791 41.3104,-23.85055 35.34983,-20.4092 a 13.571428,13.571428 0 0 0 10.7896,-1.20241 13.571428,13.571428 0 0 0 4.9661,-18.53911 13.571428,13.571428 0 0 0 -18.5374,-4.96707 13.571428,13.571428 0 0 0 -6.4294,8.73899 l -35.35653,20.4131 -41.3104,23.85055 -3.9716,-6.8791 z"
       id="path4257" />
    <g
       transform="translate(2567.7045,97.644428)"
       id="g4443">
      <g
         transform="matrix(0.13774504,5.6212551e-4,-5.6282652e-4,0.13791653,-1854.944,641.2284)"
         id="g4445">
        <g
           style="fill:#a4c639"
           id="g4447">
          <g
             style="stroke:#ffffff;stroke-width:19.28690147"
             id="use4449">
            <ellipse
               id="ellipse4559"
               ry="84"
               rx="91"
               cy="41"
               cx="0" />
            <rect
               id="rect4561"
               x="-91"
               y="20"
               width="182"
               height="182"
               rx="22" />
          </g>
          <g
             transform="scale(-1,1)"
             id="use4451"
             style="stroke:#ffffff;stroke-width:9.64345074">
            <rect
               id="rect4517"
               x="14"
               y="-86"
               width="13"
               height="86"
               transform="matrix(0.87461971,0.48480962,-0.48480962,0.87461971,0,0)"
               rx="6.5"
               style="stroke-width:9.64345074" />
            <rect
               x="-143"
               y="41"
               width="48"
               height="133"
               rx="24"
               id="rect4519"
               style="stroke-width:9.64345074" />
            <rect
               x="-58"
               y="138"
               width="48"
               height="133"
               rx="24"
               id="use4521"
               style="stroke-width:9.64345074" />
          </g>
          <g
             style="stroke:#ffffff;stroke-width:9.64345074"
             id="g4453">
            <rect
               style="stroke-width:9.64345074"
               rx="6.5"
               transform="matrix(0.87461971,0.48480962,-0.48480962,0.87461971,0,0)"
               height="86"
               width="13"
               y="-86"
               x="14"
               id="rect4455" />
            <rect
               style="stroke-width:9.64345074"
               id="rect4457"
               rx="24"
               height="133"
               width="48"
               y="41"
               x="-143" />
            <rect
               x="-58"
               y="138"
               width="48"
               height="133"
               rx="24"
               id="use4459"
               style="stroke-width:9.64345074" />
          </g>
          <g
             id="g4461">
            <ellipse
               cx="0"
               cy="41"
               rx="91"
               ry="84"
               id="ellipse4463" />
            <rect
               rx="22"
               height="182"
               width="182"
               y="20"
               x="-91"
               id="rect4465" />
          </g>
        </g>
        <g
           style="fill:#ffffff;stroke:#ffffff;stroke-width:9.64345074"
           id="g4467">
          <path
             style="stroke-width:9.64345074"
             d="m -95,44.5 190,0"
             id="path4469" />
          <circle
             style="stroke-width:9.64345074"
             cy="0"
             cx="-42"
             r="4"
             id="circle4471" />
          <circle
             style="stroke-width:9.64345074"
             cy="0"
             cx="42"
             r="4"
             id="circle4473" />
        </g>
      </g>
      <circle
         style="opacity:1;fill:#ffffff;fill-opacity:1;fill-rule:nonzero;stroke:none;stroke-width:1;stroke-linecap:round;stroke-linejoin:miter;stroke-miterlimit:4;stroke-dasharray:none;stroke-dashoffset:0;stroke-opacity:0.62000002"
         id="circle4475"
         cx="-1859.8737"
         cy="640.79425"
         r="2.5150378" />
      <path
         id="path4477"
         d="m -1856.7351,636.8779 -7.941,4.68891"
         style="fill:none;fill-rule:evenodd;stroke:#000000;stroke-width:1.59469831px;stroke-linecap:butt;stroke-linejoin:miter;stroke-opacity:1" />
      <path
         style="fill:none;fill-rule:evenodd;stroke:#000000;stroke-width:0.5;stroke-linecap:butt;stroke-linejoin:miter;stroke-miterlimit:4;stroke-dasharray:none;stroke-opacity:1"
         d="m -1863.1072,643.21946 3.3234,-0.89823 2.8743,0.17965"
         id="path4479" />
      <ellipse
         style="opacity:1;fill:#a4c639;fill-opacity:1;fill-rule:nonzero;stroke:none;stroke-width:0.5;stroke-linecap:round;stroke-linejoin:miter;stroke-miterlimit:4;stroke-dasharray:none;stroke-dashoffset:0;stroke-opacity:0.62000002"
         id="ellipse4481"
         cx="-1859.4133"
         cy="644.521"
         rx="3.3656614"
         ry="2.0800931" />
      <circle
         r="2.5150378"
         cy="640.79425"
         cx="1849.8929"
         id="circle4483"
         style="opacity:1;fill:#ffffff;fill-opacity:1;fill-rule:nonzero;stroke:none;stroke-width:1;stroke-linecap:round;stroke-linejoin:miter;stroke-miterlimit:4;stroke-dasharray:none;stroke-dashoffset:0;stroke-opacity:0.62000002"
         transform="scale(-1,1)" />
      <path
         style="fill:none;fill-rule:evenodd;stroke:#000000;stroke-width:1.59469831px;stroke-linecap:butt;stroke-linejoin:miter;stroke-opacity:1"
         d="m -1853.0315,636.8779 7.941,4.68891"
         id="path4485" />
      <path
         id="path4487"
         d="m -1846.6594,643.21946 -3.3234,-0.89823 -2.8743,0.17965"
         style="fill:none;fill-rule:evenodd;stroke:#000000;stroke-width:0.5;stroke-linecap:butt;stroke-linejoin:miter;stroke-miterlimit:4;stroke-dasharray:none;stroke-opacity:1" />
      <ellipse
         ry="2.0800931"
         rx="3.3656614"
         cy="644.521"
         cx="1850.3533"
         id="ellipse4489"
         style="opacity:1;fill:#a4c639;fill-opacity:1;fill-rule:nonzero;stroke:none;stroke-width:0.5;stroke-linecap:round;stroke-linejoin:miter;stroke-miterlimit:4;stroke-dasharray:none;stroke-dashoffset:0;stroke-opacity:0.62000002"
         transform="scale(-1,1)" />
    </g>
    <path
       style="opacity:1;fill:#a4c639;fill-opacity:1;fill-rule:nonzero;stroke:#000000;stroke-width:1;stroke-linecap:round;stroke-linejoin:miter;stroke-miterlimit:4;stroke-dasharray:none;stroke-dashoffset:0;stroke-opacity:0.62000002"
       d="m 731.60028,768.02867 37.74409,37.90234 0,9.3125 c 0,8.58034 6.9079,15.48828 15.4883,15.48828 l 124,0 c 8.5803,0 15.4883,-6.90794 15.4883,-15.48828 l 0,-17.29492 c 0,-8.58034 -6.908,-15.48828 -15.4883,-15.48828 l -122.9141,0 -54.31829,-14.43164 z"
       id="path4613" />
    <text
       xml:space="preserve"
       style="font-style:normal;font-weight:normal;font-size:13.07380581px;line-height:125%;font-family:sans-serif;letter-spacing:0px;word-spacing:0px;fill:#ffffff;fill-opacity:0.92666668;stroke:none;stroke-width:1px;stroke-linecap:butt;stroke-linejoin:miter;stroke-opacity:1"
       x="780.73877"
       y="801.12842"
       id="text4615"><tspan
         id="tspan4617"
         x="780.73877"
         y="801.12842">the domain doesn't</tspan><tspan
         x="780.73877"
         y="817.4707"
         id="tspan4619">know me (⌣_⌣”)</tspan></text>
    <g
       transform="translate(2579.3911,240.42456)"
       id="g4792">
      <rect
         y="175.87238"
         x="-1562.751"
         height="81.801331"
         width="103.72855"
         id="rect4737"
         style="opacity:1;fill:#3a3a3a;fill-opacity:0.73333333;fill-rule:nonzero;stroke:none;stroke-width:1;stroke-linecap:round;stroke-linejoin:miter;stroke-miterlimit:4;stroke-dasharray:none;stroke-dashoffset:0;stroke-opacity:1"
         ry="23.37326" />
      <g
         id="g4787">
        <path
           style="opacity:1;fill:#ffffff;fill-opacity:0.81333331;fill-rule:nonzero;stroke:none;stroke-width:1;stroke-linecap:round;stroke-linejoin:miter;stroke-miterlimit:4;stroke-dasharray:none;stroke-dashoffset:0;stroke-opacity:1"
           d="m -1528.7167,207.17551 -21.2129,17.16211 21.2129,17.16015 0,-7.94336 33.3574,0 a 13.571428,13.571428 0 0 0 9.9453,4.35352 13.571428,13.571428 0 0 0 13.5703,-13.57031 13.571428,13.571428 0 0 0 -13.5703,-13.57227 13.571428,13.571428 0 0 0 -9.9375,4.35352 l -33.3652,0 0,-7.94336 z"
           id="path4739" />
        <text
           xml:space="preserve"
           style="font-style:normal;font-weight:normal;font-size:13.43721104px;line-height:125%;font-family:sans-serif;letter-spacing:0px;word-spacing:0px;fill:#ffffff;fill-opacity:0.81333331;stroke:none;stroke-width:1px;stroke-linecap:butt;stroke-linejoin:miter;stroke-opacity:1"
           x="-1553.6147"
           y="202.8029"
           id="text4741"><tspan
             id="tspan4743"
             x="-1553.6147"
             y="202.8029"
             style="font-style:normal;font-variant:normal;font-weight:normal;font-stretch:normal;font-size:14.15513515px;font-family:Hack;-inkscape-font-specification:Hack;fill:#ffffff;fill-opacity:0.81333331">dependency</tspan></text>
      </g>
    </g>
  </g>
</svg>
